#N canvas 550 197 315 224 10;
#X obj 34 10 inlet;
#N canvas 429 22 441 504 mueve_fantasma 0;
#X obj 255 217 pointer;
#X floatatom 119 116 5 0 0 0 - - -;
#X floatatom 50 115 5 0 0 0 - - -;
#X obj 31 8 inlet;
#N canvas 0 22 230 176 escala_20 0;
#X obj 51 41 inlet;
#X obj 51 147 outlet;
#X obj 99 147 outlet;
#X obj 51 66 t f f;
#X obj 51 93 % 570;
#X obj 99 93 div 570;
#X text 110 73 19*tamano;
#X text 122 59 tamano=30;
#X connect 0 0 3 0;
#X connect 3 0 4 0;
#X connect 3 1 5 0;
#X connect 4 0 1 0;
#X connect 5 0 2 0;
#X restore 50 82 pd escala_20;
#X obj 31 440 outlet;
#X obj 31 49 t f f b;
#X obj 201 66 t b b;
#X obj 201 104 \$1;
#X msg 255 183 traverse pd-escenario;
#X obj 201 164 until;
#X msg 201 200 next;
#X obj 50 418 set struct-fantasma x y color;
#X obj 104 316 +;
#X obj 50 387 pack 0 0 0;
#N canvas 675 51 471 414 switch 0;
#X obj 139 31 inlet;
#X obj 63 376 outlet;
#X obj 261 29 inlet;
#X obj 63 227 spigot 1;
#X obj 250 224 spigot 0;
#X msg 162 210 1;
#X msg 126 210 0;
#X msg 349 207 1;
#X msg 311 207 0;
#X obj 63 328 tabread colorFantasma;
#X obj 63 279 \$1;
#X obj 63 303 - 1;
#X msg 63 253 bang;
#X obj 250 371 outlet;
#X floatatom 261 61 5 0 0 0 - - -;
#X obj 261 90 sel 0 1;
#X connect 0 0 4 0;
#X connect 0 0 3 0;
#X connect 2 0 14 0;
#X connect 3 0 12 0;
#X connect 4 0 13 0;
#X connect 5 0 3 1;
#X connect 6 0 3 1;
#X connect 7 0 4 1;
#X connect 8 0 4 1;
#X connect 9 0 1 0;
#X connect 10 0 11 0;
#X connect 11 0 9 0;
#X connect 12 0 10 0;
#X connect 14 0 15 0;
#X connect 15 0 5 0;
#X connect 15 0 8 0;
#X connect 15 1 6 0;
#X connect 15 1 7 0;
#X restore 107 342 pd switch;
#X obj 158 316 r powerPac;
#X text 118 384 color o Parpadeo!!;
#X text 228 130 salta pacman y score;
#X obj 201 131 + 1;
#X connect 0 0 12 3;
#X connect 1 0 13 1;
#X connect 1 0 14 1;
#X connect 2 0 13 0;
#X connect 2 0 14 0;
#X connect 3 0 6 0;
#X connect 4 0 2 0;
#X connect 4 1 1 0;
#X connect 6 0 5 0;
#X connect 6 1 4 0;
#X connect 6 2 7 0;
#X connect 7 0 8 0;
#X connect 7 1 9 0;
#X connect 8 0 19 0;
#X connect 9 0 0 0;
#X connect 10 0 11 0;
#X connect 11 0 0 0;
#X connect 13 0 15 0;
#X connect 14 0 12 0;
#X connect 15 0 14 2;
#X connect 15 1 14 2;
#X connect 16 0 15 1;
#X connect 19 0 10 0;
#X restore 34 145 pd mueve_fantasma;
#X obj 34 79 f;
#X obj 73 10 r reset;
#X obj 34 174 purgatorio;
#N canvas 479 72 525 593 mata_pac 0;
#X obj 94 2 inlet;
#X obj 94 547 outlet;
#X obj 199 103 r \$2-GeneralPosPac;
#N canvas 548 55 576 356 verifica4puntosChoque 0;
#X obj 71 28 inlet;
#X floatatom 71 160 5 0 0 0 - - -;
#X floatatom 188 165 5 0 0 0 - - -;
#X text 21 145 pixel nueva posicion;
#X floatatom 188 246 5 0 0 0 - - -;
#X floatatom 71 244 5 0 0 0 - - -;
#X floatatom 284 144 5 0 0 0 - - -;
#X floatatom 284 252 5 0 0 0 - - -;
#X floatatom 402 141 5 0 0 0 - - -;
#X floatatom 402 249 5 0 0 0 - - -;
#N canvas 295 166 260 392 cuadrante 0;
#X obj 31 23 inlet;
#X floatatom 31 53 5 0 0 0 - - -;
#X obj 31 78 t f f;
#X obj 31 233 +;
#X floatatom 31 259 5 0 0 0 - - -;
#X obj 31 289 outlet;
#X floatatom 31 183 5 0 0 0 - - -;
#X floatatom 84 173 5 0 0 0 - - -;
#X obj 84 199 * 19;
#X obj 31 112 % 570;
#X obj 31 140 div 30;
#X obj 84 142 div 17100;
#X text 104 156 19*30*30;
#X text 39 97 19*30;
#X text 28 156 columna;
#X text 88 213 linea (cada 19 columnas);
#X connect 0 0 1 0;
#X connect 1 0 2 0;
#X connect 2 0 9 0;
#X connect 2 1 11 0;
#X connect 3 0 4 0;
#X connect 4 0 5 0;
#X connect 6 0 3 0;
#X connect 7 0 8 0;
#X connect 8 0 3 1;
#X connect 9 0 10 0;
#X connect 10 0 6 0;
#X connect 11 0 7 0;
#X restore 71 210 pd cuadrante;
#X obj 188 136 + 29;
#N canvas 295 166 260 392 cuadrante 0;
#X obj 31 23 inlet;
#X floatatom 31 53 5 0 0 0 - - -;
#X obj 31 78 t f f;
#X obj 31 233 +;
#X floatatom 31 259 5 0 0 0 - - -;
#X obj 31 289 outlet;
#X floatatom 31 183 5 0 0 0 - - -;
#X floatatom 84 173 5 0 0 0 - - -;
#X obj 84 199 * 19;
#X obj 31 112 % 570;
#X obj 31 140 div 30;
#X obj 84 142 div 17100;
#X text 104 156 19*30*30;
#X text 39 97 19*30;
#X text 28 156 columna;
#X text 88 213 linea (cada 19 columnas);
#X connect 0 0 1 0;
#X connect 1 0 2 0;
#X connect 2 0 9 0;
#X connect 2 1 11 0;
#X connect 3 0 4 0;
#X connect 4 0 5 0;
#X connect 6 0 3 0;
#X connect 7 0 8 0;
#X connect 8 0 3 1;
#X connect 9 0 10 0;
#X connect 10 0 6 0;
#X connect 11 0 7 0;
#X restore 188 209 pd cuadrante;
#N canvas 295 166 260 392 cuadrante 0;
#X obj 31 23 inlet;
#X floatatom 31 53 5 0 0 0 - - -;
#X obj 31 78 t f f;
#X obj 31 233 +;
#X floatatom 31 259 5 0 0 0 - - -;
#X obj 31 289 outlet;
#X floatatom 31 183 5 0 0 0 - - -;
#X floatatom 84 173 5 0 0 0 - - -;
#X obj 84 199 * 19;
#X obj 31 112 % 570;
#X obj 31 140 div 30;
#X obj 84 142 div 17100;
#X text 104 156 19*30*30;
#X text 39 97 19*30;
#X text 28 156 columna;
#X text 88 213 linea (cada 19 columnas);
#X connect 0 0 1 0;
#X connect 1 0 2 0;
#X connect 2 0 9 0;
#X connect 2 1 11 0;
#X connect 3 0 4 0;
#X connect 4 0 5 0;
#X connect 6 0 3 0;
#X connect 7 0 8 0;
#X connect 8 0 3 1;
#X connect 9 0 10 0;
#X connect 10 0 6 0;
#X connect 11 0 7 0;
#X restore 284 207 pd cuadrante;
#N canvas 295 166 260 392 cuadrante 0;
#X obj 31 23 inlet;
#X floatatom 31 53 5 0 0 0 - - -;
#X obj 31 78 t f f;
#X obj 31 233 +;
#X floatatom 31 259 5 0 0 0 - - -;
#X obj 31 289 outlet;
#X floatatom 31 183 5 0 0 0 - - -;
#X floatatom 84 173 5 0 0 0 - - -;
#X obj 84 199 * 19;
#X obj 31 112 % 570;
#X obj 31 140 div 30;
#X obj 84 142 div 17100;
#X text 104 156 19*30*30;
#X text 39 97 19*30;
#X text 28 156 columna;
#X text 88 213 linea (cada 19 columnas);
#X connect 0 0 1 0;
#X connect 1 0 2 0;
#X connect 2 0 9 0;
#X connect 2 1 11 0;
#X connect 3 0 4 0;
#X connect 4 0 5 0;
#X connect 6 0 3 0;
#X connect 7 0 8 0;
#X connect 8 0 3 1;
#X connect 9 0 10 0;
#X connect 10 0 6 0;
#X connect 11 0 7 0;
#X restore 402 201 pd cuadrante;
#X text 186 109 (tamano-1);
#X text 279 87 ((19*30*(30-1));
#X obj 284 115 + 16530;
#X text 387 89 (((19*30*(30-1))+29);
#X text 236 36 verifica 4 vertices \,;
#X obj 402 112 + 16559;
#X obj 71 281 outlet;
#X obj 188 284 outlet;
#X obj 284 285 outlet;
#X obj 401 282 outlet;
#X obj 71 66 t f f f f;
#X connect 0 0 25 0;
#X connect 1 0 10 0;
#X connect 2 0 12 0;
#X connect 4 0 22 0;
#X connect 5 0 21 0;
#X connect 6 0 13 0;
#X connect 7 0 23 0;
#X connect 8 0 14 0;
#X connect 9 0 24 0;
#X connect 10 0 5 0;
#X connect 11 0 2 0;
#X connect 12 0 4 0;
#X connect 13 0 7 0;
#X connect 14 0 9 0;
#X connect 17 0 6 0;
#X connect 20 0 8 0;
#X connect 25 0 1 0;
#X connect 25 1 11 0;
#X connect 25 2 17 0;
#X connect 25 3 20 0;
#X restore 199 136 pd verifica4puntosChoque;
#N canvas 548 55 576 356 verifica4puntosChoque 0;
#X obj 71 28 inlet;
#X floatatom 71 160 5 0 0 0 - - -;
#X floatatom 188 165 5 0 0 0 - - -;
#X text 21 145 pixel nueva posicion;
#X floatatom 188 246 5 0 0 0 - - -;
#X floatatom 71 244 5 0 0 0 - - -;
#X floatatom 284 144 5 0 0 0 - - -;
#X floatatom 284 252 5 0 0 0 - - -;
#X floatatom 402 141 5 0 0 0 - - -;
#X floatatom 402 249 5 0 0 0 - - -;
#N canvas 295 166 260 392 cuadrante 0;
#X obj 31 23 inlet;
#X floatatom 31 53 5 0 0 0 - - -;
#X obj 31 78 t f f;
#X obj 31 233 +;
#X floatatom 31 259 5 0 0 0 - - -;
#X obj 31 289 outlet;
#X floatatom 31 183 5 0 0 0 - - -;
#X floatatom 84 173 5 0 0 0 - - -;
#X obj 84 199 * 19;
#X obj 31 112 % 570;
#X obj 31 140 div 30;
#X obj 84 142 div 17100;
#X text 104 156 19*30*30;
#X text 39 97 19*30;
#X text 28 156 columna;
#X text 88 213 linea (cada 19 columnas);
#X connect 0 0 1 0;
#X connect 1 0 2 0;
#X connect 2 0 9 0;
#X connect 2 1 11 0;
#X connect 3 0 4 0;
#X connect 4 0 5 0;
#X connect 6 0 3 0;
#X connect 7 0 8 0;
#X connect 8 0 3 1;
#X connect 9 0 10 0;
#X connect 10 0 6 0;
#X connect 11 0 7 0;
#X restore 71 210 pd cuadrante;
#X obj 188 136 + 29;
#N canvas 295 166 260 392 cuadrante 0;
#X obj 31 23 inlet;
#X floatatom 31 53 5 0 0 0 - - -;
#X obj 31 78 t f f;
#X obj 31 233 +;
#X floatatom 31 259 5 0 0 0 - - -;
#X obj 31 289 outlet;
#X floatatom 31 183 5 0 0 0 - - -;
#X floatatom 84 173 5 0 0 0 - - -;
#X obj 84 199 * 19;
#X obj 31 112 % 570;
#X obj 31 140 div 30;
#X obj 84 142 div 17100;
#X text 104 156 19*30*30;
#X text 39 97 19*30;
#X text 28 156 columna;
#X text 88 213 linea (cada 19 columnas);
#X connect 0 0 1 0;
#X connect 1 0 2 0;
#X connect 2 0 9 0;
#X connect 2 1 11 0;
#X connect 3 0 4 0;
#X connect 4 0 5 0;
#X connect 6 0 3 0;
#X connect 7 0 8 0;
#X connect 8 0 3 1;
#X connect 9 0 10 0;
#X connect 10 0 6 0;
#X connect 11 0 7 0;
#X restore 188 209 pd cuadrante;
#N canvas 295 166 260 392 cuadrante 0;
#X obj 31 23 inlet;
#X floatatom 31 53 5 0 0 0 - - -;
#X obj 31 78 t f f;
#X obj 31 233 +;
#X floatatom 31 259 5 0 0 0 - - -;
#X obj 31 289 outlet;
#X floatatom 31 183 5 0 0 0 - - -;
#X floatatom 84 173 5 0 0 0 - - -;
#X obj 84 199 * 19;
#X obj 31 112 % 570;
#X obj 31 140 div 30;
#X obj 84 142 div 17100;
#X text 104 156 19*30*30;
#X text 39 97 19*30;
#X text 28 156 columna;
#X text 88 213 linea (cada 19 columnas);
#X connect 0 0 1 0;
#X connect 1 0 2 0;
#X connect 2 0 9 0;
#X connect 2 1 11 0;
#X connect 3 0 4 0;
#X connect 4 0 5 0;
#X connect 6 0 3 0;
#X connect 7 0 8 0;
#X connect 8 0 3 1;
#X connect 9 0 10 0;
#X connect 10 0 6 0;
#X connect 11 0 7 0;
#X restore 284 207 pd cuadrante;
#N canvas 295 166 260 392 cuadrante 0;
#X obj 31 23 inlet;
#X floatatom 31 53 5 0 0 0 - - -;
#X obj 31 78 t f f;
#X obj 31 233 +;
#X floatatom 31 259 5 0 0 0 - - -;
#X obj 31 289 outlet;
#X floatatom 31 183 5 0 0 0 - - -;
#X floatatom 84 173 5 0 0 0 - - -;
#X obj 84 199 * 19;
#X obj 31 112 % 570;
#X obj 31 140 div 30;
#X obj 84 142 div 17100;
#X text 104 156 19*30*30;
#X text 39 97 19*30;
#X text 28 156 columna;
#X text 88 213 linea (cada 19 columnas);
#X connect 0 0 1 0;
#X connect 1 0 2 0;
#X connect 2 0 9 0;
#X connect 2 1 11 0;
#X connect 3 0 4 0;
#X connect 4 0 5 0;
#X connect 6 0 3 0;
#X connect 7 0 8 0;
#X connect 8 0 3 1;
#X connect 9 0 10 0;
#X connect 10 0 6 0;
#X connect 11 0 7 0;
#X restore 402 201 pd cuadrante;
#X text 186 109 (tamano-1);
#X text 279 87 ((19*30*(30-1));
#X obj 284 115 + 16530;
#X text 387 89 (((19*30*(30-1))+29);
#X text 236 36 verifica 4 vertices \,;
#X obj 402 112 + 16559;
#X obj 71 281 outlet;
#X obj 188 284 outlet;
#X obj 284 285 outlet;
#X obj 401 282 outlet;
#X obj 71 66 t f f f f;
#X connect 0 0 25 0;
#X connect 1 0 10 0;
#X connect 2 0 12 0;
#X connect 4 0 22 0;
#X connect 5 0 21 0;
#X connect 6 0 13 0;
#X connect 7 0 23 0;
#X connect 8 0 14 0;
#X connect 9 0 24 0;
#X connect 10 0 5 0;
#X connect 11 0 2 0;
#X connect 12 0 4 0;
#X connect 13 0 7 0;
#X connect 14 0 9 0;
#X connect 17 0 6 0;
#X connect 20 0 8 0;
#X connect 25 0 1 0;
#X connect 25 1 11 0;
#X connect 25 2 17 0;
#X connect 25 3 20 0;
#X restore 113 162 pd verifica4puntosChoque;
#X obj 184 215 ==;
#X obj 231 215 ==;
#X obj 278 215 ==;
#X obj 325 215 ==;
#X obj 202 275 ||;
#X obj 294 274 ||;
#X floatatom 184 244 5 0 1 0 - - -;
#X floatatom 231 246 5 0 1 0 - - -;
#X floatatom 278 246 5 0 1 0 - - -;
#X floatatom 325 246 5 0 1 0 - - -;
#X floatatom 202 301 5 0 1 0 - - -;
#X floatatom 294 302 5 0 1 0 - - -;
#X obj 249 331 ||;
#X floatatom 249 357 5 0 1 0 - - -;
#X obj 249 382 sel 1;
#X obj 249 443 s muerte;
#N canvas 0 22 450 300 vida_o_muerte 0;
#X obj 322 47 inlet;
#X obj 103 229 outlet;
#X obj 185 230 outlet;
#X obj 103 201 spigot 1;
#X obj 185 199 spigot 0;
#X obj 322 81 > 0;
#X obj 148 178 == 0;
#X obj 103 50 inlet;
#X connect 0 0 5 0;
#X connect 3 0 1 0;
#X connect 4 0 2 0;
#X connect 5 0 4 1;
#X connect 5 0 6 0;
#X connect 6 0 3 1;
#X connect 7 0 3 0;
#X connect 7 0 4 0;
#X restore 249 416 pd vida_o_muerte;
#X obj 342 388 r powerPac;
#X text 355 420 Al pixel purgatorio;
#X msg 221 72 1;
#X msg 190 71 0;
#X obj 190 28 t b;
#X obj 94 24 spigot 1;
#X obj 94 85 t b f f;
#X obj 94 505 f;
#X msg 127 488 154170;
#X obj 342 445 t b b;
#X obj 221 45 delay 2000;
#X text 290 43 bloquea fantasma momentaneamente.;
#X msg 342 481 \; s5 1 \; comefantasma bang;
#X connect 0 0 27 0;
#X connect 2 0 3 0;
#X connect 3 0 5 1;
#X connect 3 1 6 1;
#X connect 3 2 7 1;
#X connect 3 3 8 1;
#X connect 4 0 5 0;
#X connect 4 1 6 0;
#X connect 4 2 7 0;
#X connect 4 3 8 0;
#X connect 5 0 11 0;
#X connect 6 0 12 0;
#X connect 7 0 13 0;
#X connect 8 0 14 0;
#X connect 9 0 15 0;
#X connect 10 0 16 0;
#X connect 11 0 9 0;
#X connect 12 0 9 1;
#X connect 13 0 10 0;
#X connect 14 0 10 1;
#X connect 15 0 17 0;
#X connect 16 0 17 1;
#X connect 17 0 18 0;
#X connect 18 0 19 0;
#X connect 19 0 21 0;
#X connect 21 0 20 0;
#X connect 21 1 31 0;
#X connect 22 0 21 1;
#X connect 24 0 27 1;
#X connect 25 0 27 1;
#X connect 26 0 25 0;
#X connect 26 0 32 0;
#X connect 27 0 28 0;
#X connect 28 0 29 0;
#X connect 28 1 4 0;
#X connect 28 2 29 1;
#X connect 29 0 1 0;
#X connect 30 0 29 1;
#X connect 31 0 26 0;
#X connect 31 0 34 0;
#X connect 31 1 30 0;
#X connect 32 0 24 0;
#X restore 34 117 pd mata_pac;
#X obj 127 10 r \$2-initFantasma;
#X msg 11 56 154170;
#X obj 11 34 r casaFantasma;
#X connect 0 0 2 0;
#X connect 1 0 4 0;
#X connect 2 0 5 0;
#X connect 4 0 2 1;
#X connect 5 0 1 0;
#X connect 6 0 2 1;
#X connect 7 0 2 0;
#X connect 8 0 7 0;
