#N canvas 1340 126 281 195 10;
#N canvas 737 258 385 222 musica 0;
#N canvas 1254 267 411 313 sonidoInicio 0;
#X obj 41 22 inlet;
#X obj 41 109 tabplay~ 1-sonido;
#X msg 68 79 stop;
#X obj 41 46 sel 1;
#X obj 41 139 dac~;
#X obj 244 94 readsf~;
#X msg 219 33 open .wav \,;
#X connect 0 0 3 0;
#X connect 1 0 4 0;
#X connect 1 0 4 1;
#X connect 2 0 1 0;
#X connect 3 0 1 0;
#X connect 3 1 2 0;
#X restore 37 70 pd sonidoInicio;
#N canvas 462 261 339 205 sonidoFondo 0;
#X obj 41 78 *~ 17340;
#X obj 41 104 tabread4~ 3-sonido;
#X obj 40 53 phasor~ 2.543;
#X obj 214 91 pack 0 30;
#X obj 214 118 line~;
#X obj 41 134 *~;
#X obj 214 66 tgl 15 0 empty empty empty 17 7 0 10 -262144 -1 -1 0
1;
#X obj 214 38 inlet;
#X obj 40 165 dac~;
#X connect 0 0 1 0;
#X connect 1 0 5 0;
#X connect 2 0 0 0;
#X connect 3 0 4 0;
#X connect 4 0 5 1;
#X connect 5 0 8 0;
#X connect 5 0 8 1;
#X connect 6 0 3 0;
#X connect 7 0 6 0;
#X restore 247 67 pd sonidoFondo;
#N canvas 729 354 488 327 comePastilla 0;
#X obj 190 197 pack 0 30;
#X obj 190 224 line~;
#X obj 61 241 *~;
#X obj 60 159 phasor~ 1.793;
#X obj 61 211 tabread4~ 2-sonido;
#X obj 61 185 *~ 24585;
#X obj 317 111 delay 557;
#X msg 317 87 stop;
#X msg 190 172 1;
#X obj 61 275 dac~;
#X msg 225 171 0;
#X obj 216 12 inlet;
#X obj 190 135 spigot 1;
#X msg 235 111 0;
#X obj 235 70 t b b b;
#X msg 317 157 1;
#X text 112 253 Si deja de comer \, 557 msg despues se corta el sonido
\, si come constantemente se aplaza el delay y no se corta.;
#X obj 216 38 sel 0 1;
#X connect 0 0 1 0;
#X connect 1 0 2 1;
#X connect 2 0 9 0;
#X connect 2 0 9 1;
#X connect 3 0 5 0;
#X connect 4 0 2 0;
#X connect 5 0 4 0;
#X connect 6 0 10 0;
#X connect 6 0 15 0;
#X connect 7 0 6 0;
#X connect 8 0 0 0;
#X connect 10 0 0 0;
#X connect 11 0 17 0;
#X connect 12 0 8 0;
#X connect 13 0 12 1;
#X connect 14 0 13 0;
#X connect 14 1 12 0;
#X connect 14 1 6 0;
#X connect 14 2 7 0;
#X connect 15 0 12 1;
#X connect 17 0 10 0;
#X connect 17 1 14 0;
#X restore 142 70 pd comePastilla;
#N canvas 0 22 339 205 fantasmaEscapa 0;
#X obj 214 91 pack 0 30;
#X obj 214 118 line~;
#X obj 41 134 *~;
#X obj 214 66 tgl 15 0 empty empty empty 17 7 0 10 -262144 -1 -1 0
1;
#X obj 214 38 inlet;
#X obj 41 21 phasor~ 1.334;
#X obj 41 48 *~ 33034;
#X obj 41 74 tabread4~ 4-sonido;
#X obj 40 165 dac~;
#X obj 41 103 *~ 2.5;
#X text 89 101 subí la ganancia;
#X connect 0 0 1 0;
#X connect 1 0 2 1;
#X connect 2 0 8 0;
#X connect 2 0 8 1;
#X connect 3 0 0 0;
#X connect 4 0 3 0;
#X connect 5 0 6 0;
#X connect 6 0 7 0;
#X connect 7 0 9 0;
#X connect 9 0 2 0;
#X restore 28 159 pd fantasmaEscapa;
#X obj 258 139 tgl 15 0 empty empty empty 17 7 0 10 -262144 -1 -1 0
1;
#N canvas 654 304 184 170 sonidoMuerte 0;
#X obj 41 22 inlet;
#X msg 68 79 stop;
#X obj 41 46 sel 1;
#X obj 41 139 dac~;
#X obj 41 109 tabplay~ 6-sonido;
#X connect 0 0 2 0;
#X connect 1 0 4 0;
#X connect 2 0 4 0;
#X connect 2 1 1 0;
#X connect 4 0 3 0;
#X connect 4 0 3 1;
#X restore 258 161 pd sonidoMuerte;
#N canvas 0 22 184 170 comeFantasma 0;
#X obj 41 22 inlet;
#X msg 68 79 stop;
#X obj 41 46 sel 1;
#X obj 41 139 dac~;
#X obj 41 109 tabplay~ 5-sonido;
#X connect 0 0 2 0;
#X connect 1 0 4 0;
#X connect 2 0 4 0;
#X connect 2 1 1 0;
#X connect 4 0 3 0;
#X connect 4 0 3 1;
#X restore 142 163 pd comeFantasma;
#X obj 142 141 tgl 15 0 empty empty empty 17 7 0 10 -262144 -1 -1 0
1;
#X obj 28 138 tgl 15 0 empty empty empty 17 7 0 10 -262144 -1 -1 0
1;
#X obj 247 46 tgl 15 0 empty empty empty 17 7 0 10 -262144 -1 -1 0
1;
#X obj 37 50 tgl 15 0 empty empty empty 17 7 0 10 -262144 -1 -1 0 1
;
#X obj 37 27 r s1;
#X obj 142 23 r s2;
#X obj 247 23 r s3;
#X obj 28 115 r s4;
#X obj 142 116 r s5;
#X obj 258 116 r s6;
#X obj 142 46 tgl 15 0 empty empty empty 17 7 0 10 -262144 -1 -1 0
1;
#X connect 4 0 5 0;
#X connect 7 0 6 0;
#X connect 8 0 3 0;
#X connect 9 0 1 0;
#X connect 10 0 0 0;
#X connect 11 0 10 0;
#X connect 12 0 17 0;
#X connect 13 0 9 0;
#X connect 14 0 8 0;
#X connect 15 0 7 0;
#X connect 16 0 4 0;
#X connect 17 0 2 0;
#X restore 11 126 pd musica;
#X obj 135 29 cnv 15 104 104 empty empty empty 20 12 0 14 -258113 -66577
0;
#X obj 137 31 cnv 15 100 100 empty empty empty 20 12 0 14 -262144 -66577
0;
#N canvas 718 23 303 452 game 0;
#X obj 52 44 tgl 15 0 empty empty empty 17 7 0 10 -262144 -1 -1 0 1
;
#N canvas 450 71 182 189 time 0;
#X obj -29 119 s time;
#X obj 23 26 inlet;
#X floatatom 23 103 5 0 0 0 - - -, f 5;
#X msg 62 47 -1;
#X obj 43 131 moses 50000;
#X obj 23 77 + 1;
#X obj 23 53 -1;
#X obj 23 167 outlet;
#X connect 1 0 6 0;
#X connect 2 0 4 0;
#X connect 2 0 0 0;
#X connect 2 0 7 0;
#X connect 3 0 6 1;
#X connect 4 0 3 0;
#X connect 5 0 2 0;
#X connect 5 0 6 1;
#X connect 6 0 5 0;
#X restore 52 95 pd time;
#X msg 172 78 bang;
#X obj 172 55 until;
#X msg 172 32 10;
#X floatatom 52 120 5 0 0 0 - - -, f 5;
#X obj 94 199 sel 0;
#X obj 52 199 sel 0;
#X obj 52 144 t f f;
#X text 170 14 para debug!;
#X text 131 173 controla velocidades;
#X obj 40 262 cnv 15 70 35 empty empty empty 20 12 0 14 -260097 -66577
0;
#X obj 52 270 pac \$0;
#X obj 52 67 metro 1;
#X obj 52 174 % 6;
#X obj 94 174 % 10;
#X obj 158 273 cnv 15 100 110 empty empty empty 20 12 0 14 -203904
-66577 0;
#X obj 167 283 fantasma 1 \$0;
#N canvas 0 22 258 389 velocidad 0;
#X obj 32 26 r velocidad;
#X obj 32 325 outlet;
#X obj 86 325 outlet;
#X text 39 346 PAC;
#X text 82 346 FANTASMAS;
#X obj 32 134 + 1;
#X floatatom 32 156 5 0 0 0 - - -, f 5;
#X msg 32 258 6;
#X msg 86 263 10;
#X msg 115 263 9;
#X msg 147 263 8;
#X msg 179 263 7;
#X obj 32 108 f;
#X obj 32 179 sel 1 2 3 4;
#X obj 139 172 s score-etapa;
#X obj 141 26 r reset-total;
#X msg 141 62 0;
#X msg 32 61 bang;
#X connect 0 0 17 0;
#X connect 5 0 6 0;
#X connect 5 0 12 1;
#X connect 6 0 13 0;
#X connect 6 0 14 0;
#X connect 7 0 1 0;
#X connect 8 0 2 0;
#X connect 9 0 2 0;
#X connect 10 0 2 0;
#X connect 11 0 2 0;
#X connect 12 0 5 0;
#X connect 13 0 8 0;
#X connect 13 1 9 0;
#X connect 13 2 10 0;
#X connect 13 3 11 0;
#X connect 13 4 11 0;
#X connect 15 0 16 0;
#X connect 16 0 12 0;
#X connect 17 0 12 0;
#X restore 120 119 pd velocidad;
#X obj 167 302 fantasma 2 \$0;
#X obj 167 321 fantasma 3 \$0;
#X obj 167 340 fantasma 4 \$0;
#X obj 52 20 r game;
#X connect 0 0 13 0;
#X connect 1 0 5 0;
#X connect 2 0 1 0;
#X connect 3 0 2 0;
#X connect 4 0 3 0;
#X connect 5 0 8 0;
#X connect 6 0 17 0;
#X connect 6 0 19 0;
#X connect 6 0 20 0;
#X connect 6 0 21 0;
#X connect 7 0 12 0;
#X connect 8 0 14 0;
#X connect 8 1 15 0;
#X connect 13 0 1 0;
#X connect 14 0 7 0;
#X connect 15 0 6 0;
#X connect 18 1 15 1;
#X connect 22 0 0 0;
#X restore 11 102 pd game;
#X msg 184 69 start;
#N canvas 551 125 451 357 init 0;
#N canvas 526 290 316 312 draw_init 0;
#X msg 103 101 \; pd-escenario clear;
#X obj 28 23 inlet;
#X obj 164 75 table laberinto 399;
#N canvas 846 279 314 300 pac 0;
#X obj 47 11 inlet;
#X obj 242 213 pointer;
#X msg 86 116 traverse pd-escenario \, bang;
#X obj 47 44 t b b b;
#N canvas 0 22 230 176 escala_20 0;
#X obj 51 41 inlet;
#X obj 51 147 outlet;
#X obj 99 147 outlet;
#X obj 51 66 t f f;
#X obj 51 93 % 570;
#X obj 99 93 div 570;
#X connect 0 0 3 0;
#X connect 3 0 4 0;
#X connect 3 1 5 0;
#X connect 4 0 1 0;
#X connect 5 0 2 0;
#X restore 47 177 pd escala_20;
#X obj 47 270 append struct-pac x y v1 v2 v3 v4;
#X obj 47 221 pack 0 0 1 0 0 0;
#X text 103 236 visible-invisible;
#X msg 66 74 256772;
#X msg 47 99 256772;
#X obj 64 147 s \$0-initPac;
#X connect 0 0 3 0;
#X connect 1 0 5 6;
#X connect 2 0 1 0;
#X connect 3 0 9 0;
#X connect 3 1 8 0;
#X connect 3 2 2 0;
#X connect 4 0 6 0;
#X connect 4 1 6 1;
#X connect 6 0 5 0;
#X connect 9 0 4 0;
#X connect 9 0 10 0;
#X restore 43 241 pd pac;
#X text 254 59 19X21;
#N canvas 290 70 553 378 ladrillos 0;
#X obj 29 25 inlet;
#X obj 158 122 tabread laberinto;
#N canvas 370 165 230 176 escala_20 0;
#X obj 51 41 inlet;
#X obj 52 147 outlet;
#X obj 99 147 outlet;
#X obj 51 66 t f f;
#X obj 52 93 % 19;
#X obj 99 93 div 19;
#X obj 52 122 * 30;
#X obj 99 121 * 30;
#X connect 0 0 3 0;
#X connect 3 0 4 0;
#X connect 3 1 5 0;
#X connect 4 0 6 0;
#X connect 5 0 7 0;
#X connect 6 0 1 0;
#X connect 7 0 2 0;
#X restore 29 137 pd escala_20;
#N canvas 278 94 182 284 counter399ladrillos 0;
#X obj 35 19 inlet;
#X obj 35 45 t b b;
#X obj 35 129 f;
#X obj 35 151 + 1;
#X obj 35 103 until;
#X msg 81 112 -1;
#X msg 35 76 399;
#X obj 35 181 t f f;
#X obj 35 217 outlet;
#X obj 82 217 outlet;
#X connect 0 0 1 0;
#X connect 1 0 6 0;
#X connect 1 1 5 0;
#X connect 2 0 3 0;
#X connect 3 0 2 1;
#X connect 3 0 7 0;
#X connect 4 0 2 0;
#X connect 5 0 2 1;
#X connect 6 0 4 0;
#X connect 7 0 8 0;
#X connect 7 1 9 0;
#X restore 29 93 pd counter399ladrillos;
#X obj 29 59 t b b;
#X text 97 21 CREACION DE LADRILLOS;
#X obj 368 100 pointer;
#X msg 368 76 traverse pd-escenario \, bang;
#X obj 158 151 moses 0;
#N canvas 0 22 566 485 nuevosLadrillos 0;
#X obj 28 21 inlet;
#X obj 28 434 outlet;
#X msg 70 122 0 0 0 39 0 0 0 1 0 0 0 0 0 0 0 0 0 0;
#X obj 28 49 sel -1 -2 -3 -4 -5 -6 -7 -8 -9 -10 -11 -12 -13 -14;
#X msg 28 75 0 0 0 39 0 1 0 0 0 0 0 0 0 0 0 0 0 0 0;
#X msg 49 98 0 0 0 39 0 0 1 0 0 0 0 0 0 0 0 0 0 0 0;
#X msg 92 146 0 0 0 39 0 0 0 0 1 0 0 0 0 0 0 0 0 0 0;
#X msg 113 172 0 0 0 39 0 0 0 0 0 1 0 0 0 0 0 0 0 0 0;
#X msg 134 202 0 0 0 39 0 0 0 0 0 0 1 0 0 0 0 0 0 0 0;
#X msg 155 228 0 0 0 39 0 0 0 0 0 0 0 1 0 0 0 0 0 0 0;
#X msg 176 258 0 0 0 39 0 0 0 0 0 0 0 0 1 0 0 0 0 0 0;
#X msg 197 284 0 0 0 39 0 0 0 0 0 0 0 0 0 1 0 0 0 0 0;
#X msg 218 309 0 0 0 39 0 0 0 0 0 0 0 0 0 0 1 0 0 0 0;
#X msg 240 335 0 0 0 39 0 0 0 0 0 0 0 0 0 0 0 1 0 0 0;
#X msg 261 365 0 0 0 39 0 0 0 0 0 0 0 0 0 0 0 0 1 0 0;
#X msg 282 391 0 0 0 39 0 0 0 0 0 0 0 0 0 0 0 0 0 1 0;
#X msg 302 417 0 0 0 39 0 0 0 0 0 0 0 0 0 0 0 0 0 0 1;
#X connect 0 0 3 0;
#X connect 2 0 1 0;
#X connect 3 0 4 0;
#X connect 3 1 5 0;
#X connect 3 2 2 0;
#X connect 3 3 6 0;
#X connect 3 4 7 0;
#X connect 3 5 8 0;
#X connect 3 6 9 0;
#X connect 3 7 10 0;
#X connect 3 8 11 0;
#X connect 3 9 12 0;
#X connect 3 10 13 0;
#X connect 3 11 14 0;
#X connect 3 12 15 0;
#X connect 3 13 16 0;
#X connect 4 0 1 0;
#X connect 5 0 1 0;
#X connect 6 0 1 0;
#X connect 7 0 1 0;
#X connect 8 0 1 0;
#X connect 9 0 1 0;
#X connect 10 0 1 0;
#X connect 11 0 1 0;
#X connect 12 0 1 0;
#X connect 13 0 1 0;
#X connect 14 0 1 0;
#X connect 15 0 1 0;
#X connect 16 0 1 0;
#X restore 158 179 pd nuevosLadrillos;
#X obj 29 312 append struct-ladrillo x y pastilla a b color tipo0 tipo1
tipo2 tipo3 tipo4 tipo5 tipo6 tipo7 tipo8 tipo9 tipo10 tipo11 tipo12
tipo13 tipo14;
#X obj 29 285 pack 0 0 0 0 0 0 0 0 0 0 0 0 0 0 0 0 0 0 0 0 0;
#X obj 67 252 unpack 0 0 0 0 0 0 0 0 0 0 0 0 0 0 0 0 0 0 0;
#N canvas 0 22 348 230 antiguosLadrillos 0;
#X msg 42 103 0 0 0 0 1 0 0 0 0 0 0 0 0 0 0 0 0 0;
#X obj 28 49 sel 0 1 2 3;
#X obj 28 21 inlet;
#X obj 28 170 outlet;
#X msg 59 128 1 14 18 0 1 0 0 0 0 0 0 0 0 0 0 0 0 0;
#X msg 75 153 1 10 22 0 1 0 0 0 0 0 0 0 0 0 0 0 0 0;
#X msg 28 77 0 0 0 39 1 0 0 0 0 0 0 0 0 0 0 0 0 0;
#X connect 0 0 3 0;
#X connect 1 0 6 0;
#X connect 1 1 0 0;
#X connect 1 2 4 0;
#X connect 1 3 5 0;
#X connect 2 0 1 0;
#X connect 4 0 3 0;
#X connect 5 0 3 0;
#X connect 6 0 3 0;
#X restore 197 204 pd antiguosLadrillos;
#X connect 0 0 4 0;
#X connect 1 0 8 0;
#X connect 2 0 11 0;
#X connect 2 1 11 1;
#X connect 3 0 2 0;
#X connect 3 1 1 0;
#X connect 4 0 3 0;
#X connect 4 1 7 0;
#X connect 6 0 10 21;
#X connect 7 0 6 0;
#X connect 8 0 9 0;
#X connect 8 1 13 0;
#X connect 9 0 12 0;
#X connect 11 0 10 0;
#X connect 12 0 11 2;
#X connect 12 1 11 3;
#X connect 12 2 11 4;
#X connect 12 3 11 5;
#X connect 12 4 11 6;
#X connect 12 5 11 7;
#X connect 12 6 11 8;
#X connect 12 7 11 9;
#X connect 12 8 11 10;
#X connect 12 9 11 11;
#X connect 12 10 11 12;
#X connect 12 11 11 13;
#X connect 12 12 11 14;
#X connect 12 13 11 15;
#X connect 12 14 11 16;
#X connect 12 15 11 17;
#X connect 12 16 11 18;
#X connect 12 17 11 19;
#X connect 12 18 11 20;
#X connect 13 0 12 0;
#X restore 73 184 pd ladrillos;
#X obj 125 21 loadbang;
#N canvas 783 168 440 412 fantasmas 0;
#X obj 45 27 inlet;
#X obj 234 320 pointer;
#X msg 234 286 traverse pd-escenario \, bang;
#N canvas 0 22 230 176 escala_20 0;
#X obj 51 41 inlet;
#X obj 51 147 outlet;
#X obj 99 147 outlet;
#X obj 51 66 t f f;
#X obj 51 93 % 570;
#X obj 99 93 div 570;
#X connect 0 0 3 0;
#X connect 3 0 4 0;
#X connect 3 1 5 0;
#X connect 4 0 1 0;
#X connect 5 0 2 0;
#X restore 45 269 pd escala_20;
#X msg 45 190 154170;
#X obj 63 235 s \$0-initFantasma;
#X obj 45 351 append struct-fantasma x y color;
#X text 281 90 COLORES;
#X obj 45 54 t b b;
#X obj 45 156 t b b f;
#N canvas 486 220 181 270 contador5 0;
#X obj 30 121 until;
#X obj 30 153 -1;
#X msg 77 136 -1;
#X obj 30 34 inlet;
#X obj 30 244 outlet;
#X obj 30 62 t b b;
#X obj 30 179 + 1;
#X obj 30 212 tabread colorFantasma;
#X msg 30 98 4;
#X connect 0 0 1 0;
#X connect 1 0 6 0;
#X connect 2 0 1 1;
#X connect 3 0 5 0;
#X connect 5 0 8 0;
#X connect 5 1 2 0;
#X connect 6 0 1 1;
#X connect 6 0 7 0;
#X connect 7 0 4 0;
#X connect 8 0 0 0;
#X restore 45 129 pd contador5;
#X obj 45 313 pack 0 0 0;
#X obj 136 128 table colorFantasma 4;
#X msg 72 83 \; colorFantasma 0 900 90 709 99;
#X connect 0 0 8 0;
#X connect 1 0 6 3;
#X connect 2 0 1 0;
#X connect 3 0 11 0;
#X connect 3 1 11 1;
#X connect 4 0 3 0;
#X connect 4 0 5 0;
#X connect 8 0 10 0;
#X connect 8 1 13 0;
#X connect 9 0 4 0;
#X connect 9 1 2 0;
#X connect 9 2 11 2;
#X connect 10 0 9 0;
#X connect 11 0 6 0;
#X restore 58 213 pd fantasmas;
#N canvas 843 25 412 278 scorer 0;
#X obj 24 20 inlet;
#X obj 24 46 \$0;
#X text 181 33 -258113 = rojo;
#X text 183 47 -257985 = amarillo;
#X msg 24 129 \; pd-escenario obj 300 605 cnv 1 1 1 \$1-score \$1-vidaR
pac: 10 10 2 25 18 -262144;
#X msg 24 75 \; pd-escenario obj 400 605 cnv 1 1 1 \$1-score \$1-scoreR
score: 10 10 2 25 18 -262144;
#X msg 24 184 \; pd-escenario obj 185 605 cnv 1 1 1 \$1-etapa \$1-etapaR
stage: 10 10 2 25 18 -262144;
#X connect 0 0 1 0;
#X connect 1 0 5 0;
#X connect 1 0 4 0;
#X connect 1 0 6 0;
#X restore 28 270 pd scorer;
#X obj 28 61 t b b b b b b;
#X msg 88 140 \; laberinto read laberinto.txt;
#X connect 1 0 9 0;
#X connect 6 0 0 0;
#X connect 9 0 8 0;
#X connect 9 1 3 0;
#X connect 9 2 7 0;
#X connect 9 3 5 0;
#X connect 9 4 10 0;
#X connect 9 5 0 0;
#X restore 178 206 pd draw_init;
#X msg 195 235 \; pd-escenario vis 1;
#N canvas 156 34 358 296 cargasonidos 0;
#X obj 30 41 inlet;
#X obj 30 256 soundfiler;
#X obj 30 201 + 1;
#X obj 30 178 0;
#X obj 30 142 until;
#X msg 83 161 0;
#X msg 30 112 6;
#X text 234 41 intro;
#X text 234 58 come pastilla;
#X text 236 124 come fantasma;
#X text 233 103 fantasma escapa;
#X text 237 145 muerte;
#X obj 124 84 table 3-sonido;
#X obj 124 104 table 4-sonido;
#X obj 124 145 table 6-sonido;
#X obj 124 124 table 5-sonido;
#X msg 30 227 read -resize sonidos/\$1.wav \$1-sonido;
#X obj 124 63 table 2-sonido;
#X obj 123 41 table 1-sonido;
#X text 235 80 fantasma de fondo;
#X obj 30 81 t b b;
#X connect 0 0 20 0;
#X connect 2 0 3 1;
#X connect 2 0 16 0;
#X connect 3 0 2 0;
#X connect 4 0 3 0;
#X connect 5 0 3 1;
#X connect 6 0 4 0;
#X connect 16 0 1 0;
#X connect 20 0 6 0;
#X connect 20 1 5 0;
#X restore 180 48 pd cargasonidos;
#X obj 161 -9 inlet;
#X msg 48 278 \; game 0;
#X obj 48 79 r stop;
#N canvas 265 323 549 300 comienzo 0;
#X obj 36 22 inlet;
#X obj 36 185 delay 4000;
#X text 106 49 retorno a casa de pacman y fantasmas \, musica de introduccion
por 4000 msg.;
#X msg 36 219 \; s1 0 \; s3 1 \; game 1;
#X text 82 240 Cambio de musica \, comienza el juego.;
#X msg 75 79 \; casa bang \; casaFantasma bang \; s3 0 \; s1 1 \;;
#X obj 36 55 t b b b;
#X msg 123 166 \; mueve-score bang \; score-etapa bang \; vidas bang
;
#X text 251 173 GRAFICA SCORER NUEVAMENTE (EVITA CEROS AL RESET);
#X obj 12 118 r stop;
#X msg 12 143 stop;
#X connect 0 0 6 0;
#X connect 1 0 3 0;
#X connect 6 0 1 0;
#X connect 6 1 7 0;
#X connect 6 2 5 0;
#X connect 9 0 10 0;
#X connect 10 0 1 0;
#X restore 161 305 pd comienzo;
#X msg 79 113 \; s1 0 \; s2 0 \; s3 0 \; s4 0 \; s5 0 \; s6 0;
#X obj 161 170 t b b b b;
#X obj 161 15 t b b b;
#X text 178 151 puede traer problemas en el scorer..;
#X msg 263 281 \; reset bang;
#X obj 185 110 r nueva-etapa;
#X msg 299 32 \; reset-total bang \; pd dsp 1 \;;
#X msg 300 85 \; mueve-score bang \; score-etapa bang \; vidas bang
;
#X obj 48 25 s stop;
#X obj 48 3 inlet;
#X connect 3 0 9 0;
#X connect 5 0 4 0;
#X connect 5 0 7 0;
#X connect 8 0 6 0;
#X connect 8 1 0 0;
#X connect 8 2 1 0;
#X connect 8 3 11 0;
#X connect 9 0 8 0;
#X connect 9 1 2 0;
#X connect 9 2 13 0;
#X connect 12 0 8 0;
#X connect 16 0 15 0;
#X restore 145 102 pd init;
#X msg 145 70 stop;
#X text 145 42 APRIETA START!!;
#N canvas 731 372 347 337 muerte_resurreccion 0;
#X obj 37 29 r muerte;
#X obj 37 102 f;
#X obj 37 128 + 1;
#X floatatom 37 154 5 0 0 0 - - -, f 5;
#X obj 37 53 t b b;
#X obj 37 76 delay 3000;
#X msg 64 206 bang;
#X text 75 154 VIDAS!!;
#X msg 37 262 0;
#X obj 37 292 s stop;
#X text 65 262 FIN DEL JUEGO!!!!!!!!!!!!;
#X obj 157 194 -;
#X msg 157 170 4 \$1;
#X obj 157 219 s vidas;
#X obj 37 181 sel 4;
#N canvas 78 293 440 300 re-comienzo 0;
#X obj 36 22 inlet;
#X obj 36 185 delay 4000;
#X obj 36 55 t b b;
#X text 106 49 retorno a casa de pacman y fantasmas \, musica de introduccion
por 4000 msg.;
#X msg 36 219 \; s1 0 \; s3 1 \; game 1;
#X text 95 209 Cambio de musica \, comienza el juego.;
#X msg 63 86 \; casa bang \; casaFantasma bang \; s3 0 \; s1 1;
#X connect 0 0 2 0;
#X connect 1 0 4 0;
#X connect 2 0 1 0;
#X connect 2 1 6 0;
#X restore 64 239 pd re-comienzo;
#X msg 238 70 \; game 0 \; s1 0 \; s2 0 \; s3 0 \; s4 0 \; s5 0 \;
s6 1;
#X obj 124 27 r reset-total;
#X msg 74 101 1;
#X connect 0 0 4 0;
#X connect 1 0 2 0;
#X connect 2 0 1 1;
#X connect 2 0 3 0;
#X connect 3 0 12 0;
#X connect 3 0 14 0;
#X connect 4 0 5 0;
#X connect 4 1 16 0;
#X connect 5 0 1 0;
#X connect 6 0 15 0;
#X connect 8 0 9 0;
#X connect 11 0 13 0;
#X connect 12 0 11 0;
#X connect 14 0 8 0;
#X connect 14 1 6 0;
#X connect 17 0 18 0;
#X connect 18 0 1 1;
#X connect 18 0 12 0;
#X restore 11 150 pd muerte_resurreccion;
#N canvas 102 45 343 265 scorer 0;
#X obj 22 32 r comepastilla;
#X obj 118 32 r comefantasma;
#X obj 70 140 +;
#X obj 70 170 f;
#X msg 22 68 1;
#X msg 118 68 20;
#X msg 226 51 0;
#N canvas 613 77 214 147 mueve-score 0;
#X obj 31 29 inlet;
#X floatatom 31 54 5 0 0 0 - - -, f 5;
#X msg 31 101 label \$1;
#X obj 31 125 s \$0-scoreR;
#X obj 31 78 makefilename score:%d;
#X obj 84 29 r mueve-score;
#X connect 0 0 1 0;
#X connect 1 0 4 0;
#X connect 2 0 3 0;
#X connect 4 0 2 0;
#X connect 5 0 1 0;
#X restore 70 215 pd mueve-score;
#N canvas 0 22 209 154 vidas 0;
#X obj 33 20 r vidas;
#X floatatom 33 48 5 0 0 0 - - -, f 5;
#X msg 34 95 label \$1;
#X obj 34 119 s \$0-vidaR;
#X obj 33 72 makefilename pac:%d;
#X connect 0 0 1 0;
#X connect 1 0 4 0;
#X connect 2 0 3 0;
#X connect 4 0 2 0;
#X restore 188 214 pd vidas;
#X obj 226 24 r reset-total;
#N canvas 72 139 209 154 etapa 0;
#X floatatom 34 48 5 0 0 0 - - -, f 5;
#X msg 34 95 label \$1;
#X obj 34 119 s \$0-etapaR;
#X obj 34 20 r score-etapa;
#X obj 34 72 makefilename stage:%d;
#X connect 0 0 4 0;
#X connect 1 0 2 0;
#X connect 3 0 0 0;
#X connect 4 0 1 0;
#X restore 253 214 pd etapa;
#X obj 226 75 t f f;
#X connect 0 0 4 0;
#X connect 1 0 5 0;
#X connect 2 0 3 0;
#X connect 3 0 2 1;
#X connect 3 0 7 0;
#X connect 4 0 2 0;
#X connect 5 0 2 0;
#X connect 6 0 11 0;
#X connect 9 0 6 0;
#X connect 11 0 2 0;
#X connect 11 1 2 1;
#X restore 11 54 pd scorer;
#N canvas 766 34 307 323 etapa 0;
#X obj 115 31 r etapa;
#X msg 203 83 \; stop bang;
#N canvas 620 287 628 293 subrutinaColores 0;
#X obj 111 5 inlet;
#X obj 118 254 set struct-ladrillo color;
#X obj 265 222 pointer;
#X obj 33 122 f;
#X obj 33 144 + 1;
#X obj 118 182 tabread laberinto;
#X obj 118 207 sel 0;
#X obj 125 150 t f b;
#X msg 174 153 next;
#X obj 23 55 until;
#X msg 23 28 399;
#X msg 80 99 -1;
#X floatatom 71 230 5 0 0 0 - - -, f 5;
#X msg 265 102 traverse pd-escenario \, next \, next \, next \, next
\, next \, next;
#X obj 118 231 f;
#X obj 111 35 t b b f;
#X connect 0 0 15 0;
#X connect 2 0 1 1;
#X connect 3 0 4 0;
#X connect 4 0 3 1;
#X connect 4 0 7 0;
#X connect 5 0 6 0;
#X connect 5 0 12 0;
#X connect 6 0 14 0;
#X connect 7 0 5 0;
#X connect 7 1 8 0;
#X connect 8 0 2 0;
#X connect 9 0 3 0;
#X connect 10 0 9 0;
#X connect 11 0 3 1;
#X connect 13 0 2 0;
#X connect 14 0 1 0;
#X connect 15 0 10 0;
#X connect 15 1 13 0;
#X connect 15 1 11 0;
#X connect 15 2 14 1;
#X restore 80 187 pd subrutinaColores;
#X obj 205 35 bng 15 250 50 0 empty empty empty 17 7 0 10 -262144 -1
-1;
#X obj 115 91 delay 500;
#X msg 34 83 990;
#X msg 33 108 900;
#X msg 34 136 0;
#X obj 115 66 t b b;
#X obj 115 119 delay 500;
#X obj 115 150 delay 2500;
#X msg 115 229 \; velocidad bang \; nueva-etapa bang;
#X connect 0 0 8 0;
#X connect 3 0 8 0;
#X connect 4 0 6 0;
#X connect 4 0 9 0;
#X connect 5 0 2 0;
#X connect 6 0 2 0;
#X connect 7 0 2 0;
#X connect 8 0 5 0;
#X connect 8 0 4 0;
#X connect 8 1 1 0;
#X connect 9 0 7 0;
#X connect 9 0 10 0;
#X connect 10 0 11 0;
#X restore 11 78 pd etapa;
#N canvas 609 207 211 183 estructuras 0;
#N canvas 0 23 1920 986 escenario 0;
#X obj 400 605 cnv 1 1 1 1008-score 1008-scoreR score:80 10 10 2 25
-62784 -262144 0;
#X obj 300 605 cnv 1 1 1 1008-score 1008-vidaR pac:0 10 10 2 25 -62784
-262144 0;
#X obj 185 605 cnv 1 1 1 1008-etapa 1008-etapaR stage:1 10 10 2 25
-62784 -262144 0;
#X restore 29 47 pd escenario;
#N canvas 497 22 753 604 struct-ladrillo 0;
#X text 17 142 tipo0;
#X text 16 101 pastilla;
#X obj 18 21 struct struct-ladrillo float x float y float a float b
float color float pastilla float tipo0 float tipo1 float tipo2 float
tipo3 float tipo4 float tipo5 float tipo6 float tipo7 float tipo8 float
tipo9 float tipo10 float tipo11 float tipo12 float tipo13 float tipo14
;
#X obj 18 160 filledpolygon 0 0 1 0 0 29 0 29 29 0 29 0 0;
#X text 15 183 tipo1;
#X text 15 225 tipo2;
#X text 14 267 tipo3;
#X text 15 308 tipo4;
#X text 18 352 tipo 5;
#X text 17 421 tipo 6;
#X text 363 186 tipo 7;
#X text 363 230 tipo 8;
#X text 365 277 tipo 9;
#X text 363 327 tipo 10;
#X text 365 381 tipo 11;
#X text 367 420 tipo 12;
#X text 366 468 tipo 13;
#X text 363 515 tipo 14;
#X text 151 142 debe ser creado primero;
#X obj 363 203 drawpolygon -v tipo7 color 1 0 29 0 5 1 1 5 0 24 0 28
1 29 5 29 29;
#X obj 363 250 drawpolygon -v tipo8 color 1 0 0 24 0 28 1 29 5 29 24
28 28 24 29 0 29;
#X obj 362 300 drawpolygon -v tipo9 color 1 29 0 29 24 28 28 24 29
5 29 1 28 0 24 0 0;
#X obj 363 349 drawpolygon -v tipo10 color 1 29 29 5 29 1 28 0 24 0
5 1 1 5 0 29 0;
#X obj 363 401 drawpolygon -v tipo11 color 1 0 0 29 0;
#X obj 367 443 drawpolygon -v tipo12 color 1 29 0 29 29;
#X obj 368 489 drawpolygon -v tipo13 color 1 0 29 29 29;
#X obj 365 536 drawpolygon -v tipo14 color 1 0 29 0 0;
#X obj 18 464 drawpolygon -v tipo6 color 1 29 0 29 29;
#X obj 17 438 drawpolygon -v tipo6 color 1 0 0 0 29;
#X obj 19 395 drawpolygon -v tipo5 color 1 0 29 29 29;
#X obj 18 369 drawpolygon -v tipo5 color 1 0 0 29 0;
#X obj 17 328 drawcurve -v tipo4 color 1 29 29 5 29 1 28 0 24 0 0;
#X obj 17 287 drawcurve -v tipo3 color 1 29 0 29 24 28 28 24 29 0 29
;
#X obj 18 245 drawcurve -v tipo2 color 1 0 0 24 0 28 1 29 5 29 29;
#X obj 19 202 drawcurve -v tipo1 color 1 0 29 0 5 2 2 5 0 29 0;
#X obj 19 119 filledpolygon -v pastilla 999 999 1 a a b a b b a b a
a;
#X text 201 101 debe ser creado al último;
#X restore 29 71 pd struct-ladrillo;
#N canvas 511 22 433 240 struct-fantasma 0;
#X obj 30 48 struct struct-fantasma float x float y float color;
#X text 165 17 azul=49!!!!;
#X obj 30 91 filledcurve color color 1 0 29 0 0 29 0 29 29 21 20 14
29 8 20 0 29;
#X obj 30 167 filledcurve 0 0 1 18 10 23 10 23 15 18 15 18 10;
#X obj 29 143 filledcurve 0 0 1 7 10 12 10 12 15 7 15 7 10;
#X restore 29 95 pd struct-fantasma;
#N canvas 456 218 501 348 struct-pac 0;
#X obj 30 48 struct struct-pac float x float y float v1 float v2 float
v3 float v4;
#X text 327 154 derecha;
#X text 325 181 izquierda;
#X text 328 208 arriba;
#X text 329 236 abajo;
#X obj 30 88 filledcurve 990 990 1 0 0 29 0 29 29 0 29 0 0;
#X obj 33 157 filledpolygon -v v1 0 0 1 29 0 14 14 29 29;
#X obj 32 184 filledpolygon -v v2 0 0 1 0 0 14 14 0 29;
#X obj 33 211 filledpolygon -v v3 0 0 1 0 0 14 14 29 0;
#X obj 33 238 filledpolygon -v v4 0 0 1 0 29 14 14 29 29;
#X restore 29 119 pd struct-pac;
#N canvas 860 420 360 198 struct-score 0;
#X obj 29 38 struct struct-score float x float y float s float v;
#X obj 32 100 drawnumber v 300 605 7 vidas:;
#X obj 31 74 drawnumber s 400 605 30 score:;
#X restore 29 23 pd struct-score;
#X restore 11 30 pd estructuras;
#X connect 4 0 5 1;
#X connect 6 0 5 0;
