#N canvas 915 151 291 269 10;
#X obj 53 24 inlet;
#N canvas 820 344 425 326 reconoce_laberinto 0;
#X obj 36 10 inlet;
#X obj 36 126 t f f;
#X floatatom 36 37 10 0 0 0 - - -;
#X obj 205 184 +;
#X floatatom 255 119 5 0 0 0 - - -;
#X obj 255 48 inlet;
#X text 251 30 joystick;
#X floatatom 205 143 5 0 0 0 - - -;
#X obj 88 173 f;
#X obj 36 212 +;
#X obj 36 300 outlet;
#X msg 205 247 bang;
#X floatatom 103 151 5 0 0 0 - - -;
#X floatatom 88 196 5 0 0 0 - - -;
#N canvas 548 55 679 545 verifica4puntos 0;
#X obj 71 28 inlet;
#X floatatom 71 162 5 0 0 0 - - -;
#X floatatom 188 165 5 0 0 0 - - -;
#X text 21 147 pixel nueva posicion;
#X obj 188 269 tabread laberinto;
#X floatatom 188 246 5 0 0 0 - - -;
#X obj 71 265 tabread laberinto;
#X floatatom 248 462 5 0 0 0 - - -;
#X floatatom 188 294 5 0 0 0 - - -;
#X floatatom 71 291 5 0 0 0 - - -;
#X floatatom 71 240 5 0 0 0 - - -;
#X floatatom 343 142 5 0 0 0 - - -;
#X obj 343 273 tabread laberinto;
#X floatatom 343 250 5 0 0 0 - - -;
#X floatatom 343 298 5 0 0 0 - - -;
#X floatatom 493 139 5 0 0 0 - - -;
#X obj 493 270 tabread laberinto;
#X floatatom 493 247 5 0 0 0 - - -;
#X floatatom 493 295 5 0 0 0 - - -;
#X obj 215 513 outlet;
#N canvas 295 166 260 392 cuadrante 0;
#X obj 31 23 inlet;
#X floatatom 31 53 5 0 0 0 - - -;
#X obj 31 78 t f f;
#X obj 31 233 +;
#X floatatom 31 259 5 0 0 0 - - -;
#X obj 31 289 outlet;
#X floatatom 31 183 5 0 0 0 - - -;
#X floatatom 84 173 5 0 0 0 - - -;
#X obj 84 199 * 19;
#X obj 31 112 % 570;
#X obj 31 140 div 30;
#X obj 84 142 div 17100;
#X text 104 156 19*30*30;
#X text 39 97 19*30;
#X text 28 156 columna;
#X text 88 213 linea (cada 19 columnas);
#X connect 0 0 1 0;
#X connect 1 0 2 0;
#X connect 2 0 9 0;
#X connect 2 1 11 0;
#X connect 3 0 4 0;
#X connect 4 0 5 0;
#X connect 6 0 3 0;
#X connect 7 0 8 0;
#X connect 8 0 3 1;
#X connect 9 0 10 0;
#X connect 10 0 6 0;
#X connect 11 0 7 0;
#X restore 71 212 pd cuadrante;
#X floatatom 343 391 5 0 0 0 - - -;
#X floatatom 173 391 5 0 0 0 - - -;
#X floatatom 494 344 5 0 0 0 - - -;
#X floatatom 343 345 5 0 0 0 - - -;
#X floatatom 188 343 5 0 0 0 - - -;
#X floatatom 71 343 5 0 0 0 - - -;
#X obj 343 369 ||;
#X obj 173 367 ||;
#X obj 215 485 spigot;
#X obj 71 66 t f f f f f;
#X obj 248 432 == 0;
#X obj 248 407 ||;
#X obj 188 136 + 29;
#N canvas 295 166 260 392 cuadrante 0;
#X obj 31 23 inlet;
#X floatatom 31 53 5 0 0 0 - - -;
#X obj 31 78 t f f;
#X obj 31 233 +;
#X floatatom 31 259 5 0 0 0 - - -;
#X obj 31 289 outlet;
#X floatatom 31 183 5 0 0 0 - - -;
#X floatatom 84 173 5 0 0 0 - - -;
#X obj 84 199 * 19;
#X obj 31 112 % 570;
#X obj 31 140 div 30;
#X obj 84 142 div 17100;
#X text 104 156 19*30*30;
#X text 39 97 19*30;
#X text 28 156 columna;
#X text 88 213 linea (cada 19 columnas);
#X connect 0 0 1 0;
#X connect 1 0 2 0;
#X connect 2 0 9 0;
#X connect 2 1 11 0;
#X connect 3 0 4 0;
#X connect 4 0 5 0;
#X connect 6 0 3 0;
#X connect 7 0 8 0;
#X connect 8 0 3 1;
#X connect 9 0 10 0;
#X connect 10 0 6 0;
#X connect 11 0 7 0;
#X restore 188 209 pd cuadrante;
#N canvas 295 166 260 392 cuadrante 0;
#X obj 31 23 inlet;
#X floatatom 31 53 5 0 0 0 - - -;
#X obj 31 78 t f f;
#X obj 31 233 +;
#X floatatom 31 259 5 0 0 0 - - -;
#X obj 31 289 outlet;
#X floatatom 31 183 5 0 0 0 - - -;
#X floatatom 84 173 5 0 0 0 - - -;
#X obj 84 199 * 19;
#X obj 31 112 % 570;
#X obj 31 140 div 30;
#X obj 84 142 div 17100;
#X text 104 156 19*30*30;
#X text 39 97 19*30;
#X text 28 156 columna;
#X text 88 213 linea (cada 19 columnas);
#X connect 0 0 1 0;
#X connect 1 0 2 0;
#X connect 2 0 9 0;
#X connect 2 1 11 0;
#X connect 3 0 4 0;
#X connect 4 0 5 0;
#X connect 6 0 3 0;
#X connect 7 0 8 0;
#X connect 8 0 3 1;
#X connect 9 0 10 0;
#X connect 10 0 6 0;
#X connect 11 0 7 0;
#X restore 343 205 pd cuadrante;
#N canvas 295 166 260 392 cuadrante 0;
#X obj 31 23 inlet;
#X floatatom 31 53 5 0 0 0 - - -;
#X obj 31 78 t f f;
#X obj 31 233 +;
#X floatatom 31 259 5 0 0 0 - - -;
#X obj 31 289 outlet;
#X floatatom 31 183 5 0 0 0 - - -;
#X floatatom 84 173 5 0 0 0 - - -;
#X obj 84 199 * 19;
#X obj 31 112 % 570;
#X obj 31 140 div 30;
#X obj 84 142 div 17100;
#X text 104 156 19*30*30;
#X text 39 97 19*30;
#X text 28 156 columna;
#X text 88 213 linea (cada 19 columnas);
#X connect 0 0 1 0;
#X connect 1 0 2 0;
#X connect 2 0 9 0;
#X connect 2 1 11 0;
#X connect 3 0 4 0;
#X connect 4 0 5 0;
#X connect 6 0 3 0;
#X connect 7 0 8 0;
#X connect 8 0 3 1;
#X connect 9 0 10 0;
#X connect 10 0 6 0;
#X connect 11 0 7 0;
#X restore 493 199 pd cuadrante;
#X text 186 109 (tamano-1);
#X text 338 85 ((19*30*(30-1));
#X obj 343 113 + 16530;
#X text 478 87 (((19*30*(30-1))+29);
#X text 236 36 verifica 4 vertices \,;
#X obj 493 110 + 16559;
#X obj 71 315 < 1;
#X obj 188 318 < 1;
#X obj 343 322 < 1;
#X obj 494 319 < 1;
#X connect 0 0 30 0;
#X connect 1 0 20 0;
#X connect 2 0 34 0;
#X connect 4 0 8 0;
#X connect 5 0 4 0;
#X connect 6 0 9 0;
#X connect 7 0 29 1;
#X connect 8 0 44 0;
#X connect 9 0 43 0;
#X connect 10 0 6 0;
#X connect 11 0 35 0;
#X connect 12 0 14 0;
#X connect 13 0 12 0;
#X connect 14 0 45 0;
#X connect 15 0 36 0;
#X connect 16 0 18 0;
#X connect 17 0 16 0;
#X connect 18 0 46 0;
#X connect 20 0 10 0;
#X connect 21 0 32 1;
#X connect 22 0 32 0;
#X connect 23 0 27 1;
#X connect 24 0 27 0;
#X connect 25 0 28 1;
#X connect 26 0 28 0;
#X connect 27 0 21 0;
#X connect 28 0 22 0;
#X connect 29 0 19 0;
#X connect 30 0 29 0;
#X connect 30 1 1 0;
#X connect 30 2 33 0;
#X connect 30 3 39 0;
#X connect 30 4 42 0;
#X connect 31 0 7 0;
#X connect 32 0 31 0;
#X connect 33 0 2 0;
#X connect 34 0 5 0;
#X connect 35 0 13 0;
#X connect 36 0 17 0;
#X connect 39 0 11 0;
#X connect 42 0 15 0;
#X connect 43 0 26 0;
#X connect 44 0 25 0;
#X connect 45 0 24 0;
#X connect 46 0 23 0;
#X restore 205 212 pd verifica4puntos;
#N canvas 0 22 354 236 direccion 0;
#X obj 72 57 sel -1 1 570 -570;
#X obj 72 14 inlet;
#X msg 72 88 1;
#X msg 109 88 2;
#X msg 143 87 3;
#X msg 181 87 4;
#X text 100 31 debe coincidir con joistick!!!!;
#X obj 15 10 inlet;
#X obj 15 36 bang;
#X obj 71 163 s direccion;
#X obj 71 130 f;
#X obj 72 35 / 1;
#X connect 0 0 2 0;
#X connect 0 1 3 0;
#X connect 0 2 4 0;
#X connect 0 3 5 0;
#X connect 1 0 11 0;
#X connect 2 0 10 1;
#X connect 3 0 10 1;
#X connect 4 0 10 1;
#X connect 5 0 10 1;
#X connect 7 0 8 0;
#X connect 8 0 10 0;
#X connect 10 0 9 0;
#X connect 11 0 0 0;
#X restore 118 286 pd direccion;
#N canvas 548 55 679 545 verifica4puntos 0;
#X obj 71 28 inlet;
#X floatatom 71 162 5 0 0 0 - - -;
#X floatatom 188 165 5 0 0 0 - - -;
#X text 21 147 pixel nueva posicion;
#X obj 188 269 tabread laberinto;
#X floatatom 188 246 5 0 0 0 - - -;
#X obj 71 265 tabread laberinto;
#X floatatom 248 462 5 0 0 0 - - -;
#X floatatom 188 294 5 0 0 0 - - -;
#X floatatom 71 291 5 0 0 0 - - -;
#X floatatom 71 240 5 0 0 0 - - -;
#X floatatom 343 142 5 0 0 0 - - -;
#X obj 343 273 tabread laberinto;
#X floatatom 343 250 5 0 0 0 - - -;
#X floatatom 343 298 5 0 0 0 - - -;
#X floatatom 493 139 5 0 0 0 - - -;
#X obj 493 270 tabread laberinto;
#X floatatom 493 247 5 0 0 0 - - -;
#X floatatom 493 295 5 0 0 0 - - -;
#X obj 215 513 outlet;
#N canvas 295 166 260 392 cuadrante 0;
#X obj 31 23 inlet;
#X floatatom 31 53 5 0 0 0 - - -;
#X obj 31 78 t f f;
#X obj 31 233 +;
#X floatatom 31 259 5 0 0 0 - - -;
#X obj 31 289 outlet;
#X floatatom 31 183 5 0 0 0 - - -;
#X floatatom 84 173 5 0 0 0 - - -;
#X obj 84 199 * 19;
#X obj 31 112 % 570;
#X obj 31 140 div 30;
#X obj 84 142 div 17100;
#X text 104 156 19*30*30;
#X text 39 97 19*30;
#X text 28 156 columna;
#X text 88 213 linea (cada 19 columnas);
#X connect 0 0 1 0;
#X connect 1 0 2 0;
#X connect 2 0 9 0;
#X connect 2 1 11 0;
#X connect 3 0 4 0;
#X connect 4 0 5 0;
#X connect 6 0 3 0;
#X connect 7 0 8 0;
#X connect 8 0 3 1;
#X connect 9 0 10 0;
#X connect 10 0 6 0;
#X connect 11 0 7 0;
#X restore 71 212 pd cuadrante;
#X floatatom 343 391 5 0 0 0 - - -;
#X floatatom 173 391 5 0 0 0 - - -;
#X floatatom 494 344 5 0 0 0 - - -;
#X floatatom 343 345 5 0 0 0 - - -;
#X floatatom 188 343 5 0 0 0 - - -;
#X floatatom 71 343 5 0 0 0 - - -;
#X obj 343 369 ||;
#X obj 173 367 ||;
#X obj 215 485 spigot;
#X obj 71 66 t f f f f f;
#X obj 248 432 == 0;
#X obj 248 407 ||;
#X obj 188 136 + 29;
#N canvas 295 166 260 392 cuadrante 0;
#X obj 31 23 inlet;
#X floatatom 31 53 5 0 0 0 - - -;
#X obj 31 78 t f f;
#X obj 31 233 +;
#X floatatom 31 259 5 0 0 0 - - -;
#X obj 31 289 outlet;
#X floatatom 31 183 5 0 0 0 - - -;
#X floatatom 84 173 5 0 0 0 - - -;
#X obj 84 199 * 19;
#X obj 31 112 % 570;
#X obj 31 140 div 30;
#X obj 84 142 div 17100;
#X text 104 156 19*30*30;
#X text 39 97 19*30;
#X text 28 156 columna;
#X text 88 213 linea (cada 19 columnas);
#X connect 0 0 1 0;
#X connect 1 0 2 0;
#X connect 2 0 9 0;
#X connect 2 1 11 0;
#X connect 3 0 4 0;
#X connect 4 0 5 0;
#X connect 6 0 3 0;
#X connect 7 0 8 0;
#X connect 8 0 3 1;
#X connect 9 0 10 0;
#X connect 10 0 6 0;
#X connect 11 0 7 0;
#X restore 188 209 pd cuadrante;
#N canvas 295 166 260 392 cuadrante 0;
#X obj 31 23 inlet;
#X floatatom 31 53 5 0 0 0 - - -;
#X obj 31 78 t f f;
#X obj 31 233 +;
#X floatatom 31 259 5 0 0 0 - - -;
#X obj 31 289 outlet;
#X floatatom 31 183 5 0 0 0 - - -;
#X floatatom 84 173 5 0 0 0 - - -;
#X obj 84 199 * 19;
#X obj 31 112 % 570;
#X obj 31 140 div 30;
#X obj 84 142 div 17100;
#X text 104 156 19*30*30;
#X text 39 97 19*30;
#X text 28 156 columna;
#X text 88 213 linea (cada 19 columnas);
#X connect 0 0 1 0;
#X connect 1 0 2 0;
#X connect 2 0 9 0;
#X connect 2 1 11 0;
#X connect 3 0 4 0;
#X connect 4 0 5 0;
#X connect 6 0 3 0;
#X connect 7 0 8 0;
#X connect 8 0 3 1;
#X connect 9 0 10 0;
#X connect 10 0 6 0;
#X connect 11 0 7 0;
#X restore 343 205 pd cuadrante;
#N canvas 295 166 260 392 cuadrante 0;
#X obj 31 23 inlet;
#X floatatom 31 53 5 0 0 0 - - -;
#X obj 31 78 t f f;
#X obj 31 233 +;
#X floatatom 31 259 5 0 0 0 - - -;
#X obj 31 289 outlet;
#X floatatom 31 183 5 0 0 0 - - -;
#X floatatom 84 173 5 0 0 0 - - -;
#X obj 84 199 * 19;
#X obj 31 112 % 570;
#X obj 31 140 div 30;
#X obj 84 142 div 17100;
#X text 104 156 19*30*30;
#X text 39 97 19*30;
#X text 28 156 columna;
#X text 88 213 linea (cada 19 columnas);
#X connect 0 0 1 0;
#X connect 1 0 2 0;
#X connect 2 0 9 0;
#X connect 2 1 11 0;
#X connect 3 0 4 0;
#X connect 4 0 5 0;
#X connect 6 0 3 0;
#X connect 7 0 8 0;
#X connect 8 0 3 1;
#X connect 9 0 10 0;
#X connect 10 0 6 0;
#X connect 11 0 7 0;
#X restore 493 199 pd cuadrante;
#X text 186 109 (tamano-1);
#X text 338 85 ((19*30*(30-1));
#X obj 343 113 + 16530;
#X text 478 87 (((19*30*(30-1))+29);
#X text 236 36 verifica 4 vertices \,;
#X obj 493 110 + 16559;
#X obj 71 315 < 1;
#X obj 188 318 < 1;
#X obj 343 322 < 1;
#X obj 494 319 < 1;
#X connect 0 0 30 0;
#X connect 1 0 20 0;
#X connect 2 0 34 0;
#X connect 4 0 8 0;
#X connect 5 0 4 0;
#X connect 6 0 9 0;
#X connect 7 0 29 1;
#X connect 8 0 44 0;
#X connect 9 0 43 0;
#X connect 10 0 6 0;
#X connect 11 0 35 0;
#X connect 12 0 14 0;
#X connect 13 0 12 0;
#X connect 14 0 45 0;
#X connect 15 0 36 0;
#X connect 16 0 18 0;
#X connect 17 0 16 0;
#X connect 18 0 46 0;
#X connect 20 0 10 0;
#X connect 21 0 32 1;
#X connect 22 0 32 0;
#X connect 23 0 27 1;
#X connect 24 0 27 0;
#X connect 25 0 28 1;
#X connect 26 0 28 0;
#X connect 27 0 21 0;
#X connect 28 0 22 0;
#X connect 29 0 19 0;
#X connect 30 0 29 0;
#X connect 30 1 1 0;
#X connect 30 2 33 0;
#X connect 30 3 39 0;
#X connect 30 4 42 0;
#X connect 31 0 7 0;
#X connect 32 0 31 0;
#X connect 33 0 2 0;
#X connect 34 0 5 0;
#X connect 35 0 13 0;
#X connect 36 0 17 0;
#X connect 39 0 11 0;
#X connect 42 0 15 0;
#X connect 43 0 26 0;
#X connect 44 0 25 0;
#X connect 45 0 24 0;
#X connect 46 0 23 0;
#X restore 36 245 pd verifica4puntos;
#N canvas 517 62 296 214 salto_lado_a_lado 0;
#X obj 43 20 inlet;
#X obj 43 165 outlet;
#X obj 43 46 sel 154440 153900;
#X msg 43 70 153900;
#X msg 92 70 154440;
#X text 142 67 Trueca posiciones;
#X connect 0 0 2 0;
#X connect 2 0 3 0;
#X connect 2 1 4 0;
#X connect 2 2 1 0;
#X connect 3 0 1 0;
#X connect 4 0 1 0;
#X restore 36 64 pd salto_lado_a_lado;
#X obj 36 269 t f f;
#X connect 0 0 2 0;
#X connect 1 0 9 0;
#X connect 1 1 7 0;
#X connect 2 0 17 0;
#X connect 3 0 14 0;
#X connect 4 0 3 1;
#X connect 5 0 4 0;
#X connect 5 0 12 0;
#X connect 7 0 3 0;
#X connect 8 0 13 0;
#X connect 9 0 16 0;
#X connect 11 0 8 0;
#X connect 12 0 8 1;
#X connect 13 0 9 1;
#X connect 13 0 15 1;
#X connect 14 0 11 0;
#X connect 16 0 18 0;
#X connect 17 0 1 0;
#X connect 18 0 10 0;
#X connect 18 1 15 0;
#X restore 53 138 pd reconoce_laberinto;
#N canvas 734 251 302 294 joystick_X-Y 0;
#X obj 53 32 keyname;
#X obj 53 60 sel 1;
#X obj 53 88 symbol;
#X obj 49 186 change;
#X obj 49 254 outlet;
#X msg 91 147 1;
#X msg 53 147 -1;
#X obj 53 119 sel Left Right Down Up s;
#X msg 199 148 0;
#X msg 121 147 570;
#X msg 152 147 -570;
#X text 91 207 da más velocidad;
#X text 91 222 debe coincidir con direccion!!!!;
#X obj 139 62 r reset;
#X obj 139 85 symbol s;
#X obj 49 215 * 1;
#X connect 0 0 1 0;
#X connect 0 1 2 1;
#X connect 1 0 2 0;
#X connect 2 0 7 0;
#X connect 3 0 15 0;
#X connect 5 0 3 0;
#X connect 6 0 3 0;
#X connect 7 0 6 0;
#X connect 7 1 5 0;
#X connect 7 2 9 0;
#X connect 7 3 10 0;
#X connect 7 4 8 0;
#X connect 8 0 3 0;
#X connect 9 0 3 0;
#X connect 10 0 3 0;
#X connect 13 0 14 0;
#X connect 14 0 7 0;
#X connect 15 0 4 0;
#X restore 176 112 pd joystick_X-Y;
#N canvas 699 97 423 326 mueve_pac 0;
#X obj 222 219 pointer;
#X floatatom 114 140 5 0 0 0 - - -;
#X floatatom 45 141 5 0 0 0 - - -;
#X obj 26 18 inlet;
#N canvas 0 22 243 180 escala_20 0;
#X obj 51 41 inlet;
#X obj 51 147 outlet;
#X obj 99 147 outlet;
#X obj 51 66 t f f;
#X obj 51 93 % 570;
#X obj 99 93 div 570;
#X text 110 73 19*tamano;
#X text 122 59 tamano=30;
#X connect 0 0 3 0;
#X connect 3 0 4 0;
#X connect 3 1 5 0;
#X connect 4 0 1 0;
#X connect 5 0 2 0;
#X restore 45 108 pd escala_20;
#X obj 45 258 set struct-pac x y v1 v2 v3 v4;
#X obj 45 224 pack 0 0 1 0 0 0;
#N canvas 960 110 287 369 direccion 0;
#X obj 63 28 r direccion;
#X msg 78 122 1 0 0 0;
#X msg 63 96 0 1 0 0;
#X msg 110 181 0 0 1 0;
#X msg 94 154 0 0 0 1;
#X text 120 95 izquierda;
#X text 135 119 derecha;
#X text 175 180 arriba;
#X text 153 152 abajo;
#X obj 42 256 unpack 0 0 0 0;
#X obj 42 285 outlet;
#X obj 89 285 outlet;
#X obj 136 285 outlet;
#X obj 184 285 outlet;
#N canvas 917 391 323 266 abre-cierra_Boca 0;
#X obj 28 11 r time;
#X msg 28 138 0 0 0 0;
#X obj 28 209 outlet;
#X text 19 155 cierra boca;
#X obj 130 11 inlet;
#X text 87 35 asegura cambio de boca - direccion;
#X obj 28 48 % 200;
#X msg 73 94 bang;
#X obj 28 71 moses 80;
#X obj 109 111 list;
#X connect 0 0 6 0;
#X connect 1 0 2 0;
#X connect 4 0 9 1;
#X connect 6 0 8 0;
#X connect 7 0 9 0;
#X connect 8 0 1 0;
#X connect 8 1 7 0;
#X connect 9 0 2 0;
#X restore 42 222 pd abre-cierra_Boca;
#X obj 63 48 change;
#X obj 63 70 sel 1 2 3 4;
#X connect 0 0 15 0;
#X connect 1 0 14 0;
#X connect 2 0 14 0;
#X connect 3 0 14 0;
#X connect 4 0 14 0;
#X connect 9 0 10 0;
#X connect 9 1 11 0;
#X connect 9 2 12 0;
#X connect 9 3 13 0;
#X connect 14 0 9 0;
#X connect 15 0 16 0;
#X connect 16 0 2 0;
#X connect 16 1 1 0;
#X connect 16 2 4 0;
#X connect 16 3 3 0;
#X restore 77 168 pd direccion;
#X obj 26 288 outlet;
#X obj 26 75 t f f b;
#X msg 222 156 traverse pd-escenario \, next;
#X obj 60 196 t b f;
#X text 107 197 Parche para bug que desaparecia pacman???;
#X connect 0 0 5 6;
#X connect 1 0 6 1;
#X connect 2 0 6 0;
#X connect 3 0 9 0;
#X connect 4 0 2 0;
#X connect 4 1 1 0;
#X connect 6 0 5 0;
#X connect 7 0 11 0;
#X connect 7 1 6 3;
#X connect 7 2 6 4;
#X connect 7 3 6 5;
#X connect 9 0 8 0;
#X connect 9 1 4 0;
#X connect 9 2 10 0;
#X connect 10 0 0 0;
#X connect 11 0 2 0;
#X connect 11 1 6 2;
#X restore 53 191 pd mueve_pac;
#N canvas 778 62 359 438 come 1;
#X obj 39 22 inlet;
#N canvas 601 306 661 413 traga 1;
#X obj 178 38 inlet;
#X obj 220 271 pointer;
#X msg 212 233 next;
#X obj 55 310 set struct-ladrillo pastilla;
#X obj 212 205 until;
#X text 203 180 busca ladrillo segun cuadrante + 1;
#X text 96 288 borra pastilla;
#X msg 55 271 0;
#X obj 178 367 outlet;
#X floatatom 219 86 5 0 0 0 - - -;
#X obj 178 127 t b b f b;
#X obj 212 161 + 1;
#X msg 260 232 traverse pd-escenario \, next \, next \, next \, next
\, next;
#X connect 0 0 9 0;
#X connect 0 0 10 0;
#X connect 1 0 3 1;
#X connect 2 0 1 0;
#X connect 4 0 2 0;
#X connect 7 0 3 0;
#X connect 10 0 8 0;
#X connect 10 1 7 0;
#X connect 10 2 11 0;
#X connect 10 3 12 0;
#X connect 11 0 4 0;
#X connect 12 0 1 0;
#X restore 130 365 pd traga;
#N canvas 295 166 260 392 cuadrante_1er-pixel 0;
#X obj 31 23 inlet;
#X floatatom 31 53 5 0 0 0 - - -;
#X obj 31 78 t f f;
#X obj 31 233 +;
#X floatatom 31 259 5 0 0 0 - - -;
#X obj 31 307 outlet;
#X floatatom 31 183 5 0 0 0 - - -;
#X floatatom 84 173 5 0 0 0 - - -;
#X obj 84 199 * 19;
#X obj 31 112 % 570;
#X obj 84 142 div 17100;
#X text 104 156 19*30*30;
#X text 39 97 19*30;
#X text 28 156 columna;
#X text 88 213 linea (cada 19 columnas);
#X obj 31 140 / 30;
#X obj 31 282 int;
#X connect 0 0 1 0;
#X connect 1 0 2 0;
#X connect 2 0 9 0;
#X connect 2 1 10 0;
#X connect 3 0 4 0;
#X connect 4 0 16 0;
#X connect 6 0 3 0;
#X connect 7 0 8 0;
#X connect 8 0 3 1;
#X connect 9 0 15 0;
#X connect 10 0 7 0;
#X connect 15 0 6 0;
#X connect 16 0 5 0;
#X restore 130 81 pd cuadrante_1er-pixel;
#X obj 39 64 t f f;
#X obj 39 184 outlet;
#N canvas 813 404 275 240 cuenta_pastillas 0;
#X obj 38 24 inlet;
#X obj 38 69 f;
#X obj 38 97 + 1;
#X obj 98 25 r reset;
#X msg 98 52 0;
#X obj 38 134 moses 184;
#X obj 89 164 bng 15 250 50 0 empty empty empty 17 7 0 10 -262144 -1
-1;
#X obj 102 114 s comepastilla;
#X obj 89 192 s etapa;
#X connect 0 0 1 0;
#X connect 1 0 2 0;
#X connect 2 0 1 1;
#X connect 2 0 5 0;
#X connect 2 0 7 0;
#X connect 3 0 4 0;
#X connect 4 0 1 1;
#X connect 5 1 6 0;
#X connect 6 0 8 0;
#X restore 130 398 pd cuenta_pastillas;
#X obj 130 137 t f f;
#X obj 130 315 f;
#X obj 130 290 t b b;
#X msg 157 315 1;
#X obj 157 340 tabwrite laberinto;
#X obj 130 161 tabread laberinto;
#N canvas 0 22 236 263 powerPac 0;
#X obj 43 22 inlet;
#X obj 85 105 delay 7000;
#X msg 43 142 1;
#X msg 85 142 0;
#X obj 43 205 s powerPac;
#X text 4 4 powerPac puede comer fantasmas;
#X msg 138 159 \; s3 1 \; s4 0;
#X msg 138 210 \; s3 0 \; s4 1;
#X msg 177 62 stop \; s4 0 \; s3 0;
#X obj 177 29 r stop;
#X obj 85 54 r stop;
#X msg 85 78 stop;
#X connect 0 0 1 0;
#X connect 0 0 2 0;
#X connect 1 0 3 0;
#X connect 2 0 4 0;
#X connect 2 0 7 0;
#X connect 3 0 4 0;
#X connect 3 0 6 0;
#X connect 8 0 1 0;
#X connect 9 0 8 0;
#X connect 10 0 11 0;
#X connect 11 0 1 0;
#X restore 30 278 pd powerPac;
#X floatatom 130 185 5 0 0 0 - - -;
#X obj 130 213 sel 2 3;
#X text 29 295 Pac Come!!;
#X msg 275 307 \; s2 1;
#X obj 130 110 change;
#X connect 0 0 3 0;
#X connect 1 0 5 0;
#X connect 2 0 17 0;
#X connect 3 0 4 0;
#X connect 3 1 2 0;
#X connect 6 0 11 0;
#X connect 6 1 7 1;
#X connect 6 1 10 1;
#X connect 7 0 1 0;
#X connect 8 0 7 0;
#X connect 8 1 9 0;
#X connect 8 1 16 0;
#X connect 9 0 10 0;
#X connect 11 0 13 0;
#X connect 13 0 14 0;
#X connect 14 0 8 0;
#X connect 14 1 8 0;
#X connect 14 1 12 0;
#X connect 17 0 6 0;
#X restore 53 163 pd come;
#X obj 53 96 f;
#X obj 101 24 r \$1-initPac;
#X obj 53 230 s \$1-GeneralPosPac;
#X text 81 95 PAC POSICION;
#X obj 2 152 r casa;
#X msg 2 174 256772;
#X connect 0 0 5 0;
#X connect 1 0 4 0;
#X connect 2 0 1 1;
#X connect 3 0 5 1;
#X connect 3 0 7 0;
#X connect 4 0 3 0;
#X connect 5 0 1 0;
#X connect 6 0 5 1;
#X connect 9 0 10 0;
#X connect 10 0 3 0;
