#N canvas 613 293 375 442 10;
#X obj 44 18 inlet;
#X obj 44 392 outlet;
#X obj 44 353 +;
#X obj 44 63 t f f;
#X floatatom 59 283 5 0 0 0 - - -;
#X floatatom 44 42 10 0 0 0 - - -;
#X obj 142 180 * 1;
#X obj 185 180 * 1;
#X obj 228 179 * 1;
#X obj 271 179 * 1;
#X obj 157 128 unpack 0 0 0 0;
#N canvas 92 394 459 327 urn________________ 0;
#X obj 35 -19 inlet;
#X obj 107 -19 inlet;
#X obj 178 -18 inlet;
#X obj 244 -19 inlet;
#X obj 234 149 + 1;
#X obj 244 7 t f b;
#X msg 269 103 -1;
#X obj 234 120 -1;
#X obj 183 54 sel 0;
#X obj 210 81 t f b;
#X obj 35 166 random;
#X obj 35 228 outlet;
#X floatatom 68 144 5 0 0 0 - - -;
#X obj 68 117 + 1;
#X obj 295 208 f;
#X obj 295 259 outlet;
#X obj 35 8 t b b f;
#X obj 295 232 sel -1;
#X obj 307 47 s \$0-urna;
#X msg 307 24 const;
#X obj 159 197 tabwrite \$0-urna;
#X obj 35 195 tabread \$0-urna;
#X obj 84 87 table \$0-urna;
#X connect 0 0 16 0;
#X connect 1 0 8 0;
#X connect 2 0 8 0;
#X connect 3 0 5 0;
#X connect 4 0 7 1;
#X connect 4 0 13 0;
#X connect 4 0 14 1;
#X connect 4 0 20 1;
#X connect 5 0 8 0;
#X connect 5 1 6 0;
#X connect 5 1 19 0;
#X connect 6 0 7 1;
#X connect 6 0 14 1;
#X connect 7 0 4 0;
#X connect 8 1 9 0;
#X connect 9 0 20 0;
#X connect 9 1 7 0;
#X connect 10 0 21 0;
#X connect 12 0 10 1;
#X connect 13 0 12 0;
#X connect 14 0 17 0;
#X connect 16 0 10 0;
#X connect 16 1 14 0;
#X connect 16 2 8 0;
#X connect 17 0 15 0;
#X connect 19 0 18 0;
#X connect 21 0 11 0;
#X restore 142 213 pd urn________________;
#X floatatom 157 156 5 0 0 0 - - -;
#X floatatom 200 155 5 0 0 0 - - -;
#X floatatom 243 155 5 0 0 0 - - -;
#X floatatom 286 155 5 0 0 0 - - -;
#N canvas 94 182 451 360 verifica4cuadrantesAlrededor 0;
#X obj 102 9 inlet;
#X floatatom 261 268 5 0 0 0 - - -;
#X floatatom 102 266 5 0 0 0 - - -;
#X floatatom 151 267 5 0 0 0 - - -;
#N canvas 548 55 679 545 verifica4puntos 0;
#X obj 71 28 inlet;
#X floatatom 71 162 5 0 0 0 - - -;
#X floatatom 188 165 5 0 0 0 - - -;
#X text 21 147 pixel nueva posicion;
#X obj 188 269 tabread laberinto;
#X floatatom 188 246 5 0 0 0 - - -;
#X obj 71 265 tabread laberinto;
#X floatatom 248 433 5 0 0 0 - - -;
#X floatatom 188 294 5 0 0 0 - - -;
#X floatatom 71 291 5 0 0 0 - - -;
#X floatatom 71 240 5 0 0 0 - - -;
#X floatatom 343 142 5 0 0 0 - - -;
#X obj 343 273 tabread laberinto;
#X floatatom 343 250 5 0 0 0 - - -;
#X floatatom 343 298 5 0 0 0 - - -;
#X floatatom 493 139 5 0 0 0 - - -;
#X obj 493 270 tabread laberinto;
#X floatatom 493 247 5 0 0 0 - - -;
#X floatatom 493 295 5 0 0 0 - - -;
#N canvas 295 166 260 392 cuadrante 0;
#X obj 31 23 inlet;
#X floatatom 31 53 5 0 0 0 - - -;
#X obj 31 78 t f f;
#X obj 31 233 +;
#X floatatom 31 259 5 0 0 0 - - -;
#X obj 31 289 outlet;
#X floatatom 31 183 5 0 0 0 - - -;
#X floatatom 84 173 5 0 0 0 - - -;
#X obj 84 199 * 19;
#X obj 31 112 % 570;
#X obj 31 140 div 30;
#X obj 84 142 div 17100;
#X text 104 156 19*30*30;
#X text 39 97 19*30;
#X text 28 156 columna;
#X text 88 213 linea (cada 19 columnas);
#X connect 0 0 1 0;
#X connect 1 0 2 0;
#X connect 2 0 9 0;
#X connect 2 1 11 0;
#X connect 3 0 4 0;
#X connect 4 0 5 0;
#X connect 6 0 3 0;
#X connect 7 0 8 0;
#X connect 8 0 3 1;
#X connect 9 0 10 0;
#X connect 10 0 6 0;
#X connect 11 0 7 0;
#X restore 71 212 pd cuadrante;
#X floatatom 343 391 5 0 0 0 - - -;
#X floatatom 173 391 5 0 0 0 - - -;
#X floatatom 494 344 5 0 0 0 - - -;
#X floatatom 343 345 5 0 0 0 - - -;
#X floatatom 188 343 5 0 0 0 - - -;
#X floatatom 71 343 5 0 0 0 - - -;
#X obj 343 369 ||;
#X obj 173 367 ||;
#X obj 248 407 ||;
#X obj 188 136 + 29;
#N canvas 295 166 260 392 cuadrante 0;
#X obj 31 23 inlet;
#X floatatom 31 53 5 0 0 0 - - -;
#X obj 31 78 t f f;
#X obj 31 233 +;
#X floatatom 31 259 5 0 0 0 - - -;
#X obj 31 289 outlet;
#X floatatom 31 183 5 0 0 0 - - -;
#X floatatom 84 173 5 0 0 0 - - -;
#X obj 84 199 * 19;
#X obj 31 112 % 570;
#X obj 31 140 div 30;
#X obj 84 142 div 17100;
#X text 104 156 19*30*30;
#X text 39 97 19*30;
#X text 28 156 columna;
#X text 88 213 linea (cada 19 columnas);
#X connect 0 0 1 0;
#X connect 1 0 2 0;
#X connect 2 0 9 0;
#X connect 2 1 11 0;
#X connect 3 0 4 0;
#X connect 4 0 5 0;
#X connect 6 0 3 0;
#X connect 7 0 8 0;
#X connect 8 0 3 1;
#X connect 9 0 10 0;
#X connect 10 0 6 0;
#X connect 11 0 7 0;
#X restore 188 209 pd cuadrante;
#N canvas 295 166 260 392 cuadrante 0;
#X obj 31 23 inlet;
#X floatatom 31 53 5 0 0 0 - - -;
#X obj 31 78 t f f;
#X obj 31 233 +;
#X floatatom 31 259 5 0 0 0 - - -;
#X obj 31 289 outlet;
#X floatatom 31 183 5 0 0 0 - - -;
#X floatatom 84 173 5 0 0 0 - - -;
#X obj 84 199 * 19;
#X obj 31 112 % 570;
#X obj 31 140 div 30;
#X obj 84 142 div 17100;
#X text 104 156 19*30*30;
#X text 39 97 19*30;
#X text 28 156 columna;
#X text 88 213 linea (cada 19 columnas);
#X connect 0 0 1 0;
#X connect 1 0 2 0;
#X connect 2 0 9 0;
#X connect 2 1 11 0;
#X connect 3 0 4 0;
#X connect 4 0 5 0;
#X connect 6 0 3 0;
#X connect 7 0 8 0;
#X connect 8 0 3 1;
#X connect 9 0 10 0;
#X connect 10 0 6 0;
#X connect 11 0 7 0;
#X restore 343 205 pd cuadrante;
#N canvas 295 166 260 392 cuadrante 0;
#X obj 31 23 inlet;
#X floatatom 31 53 5 0 0 0 - - -;
#X obj 31 78 t f f;
#X obj 31 233 +;
#X floatatom 31 259 5 0 0 0 - - -;
#X obj 31 289 outlet;
#X floatatom 31 183 5 0 0 0 - - -;
#X floatatom 84 173 5 0 0 0 - - -;
#X obj 84 199 * 19;
#X obj 31 112 % 570;
#X obj 31 140 div 30;
#X obj 84 142 div 17100;
#X text 104 156 19*30*30;
#X text 39 97 19*30;
#X text 28 156 columna;
#X text 88 213 linea (cada 19 columnas);
#X connect 0 0 1 0;
#X connect 1 0 2 0;
#X connect 2 0 9 0;
#X connect 2 1 11 0;
#X connect 3 0 4 0;
#X connect 4 0 5 0;
#X connect 6 0 3 0;
#X connect 7 0 8 0;
#X connect 8 0 3 1;
#X connect 9 0 10 0;
#X connect 10 0 6 0;
#X connect 11 0 7 0;
#X restore 493 199 pd cuadrante;
#X text 186 109 (tamano-1);
#X text 338 85 ((19*30*(30-1));
#X obj 343 113 + 16530;
#X text 478 87 (((19*30*(30-1))+29);
#X text 236 36 verifica 4 vertices \,;
#X obj 493 110 + 16559;
#X obj 71 315 < 1;
#X obj 188 318 < 1;
#X obj 343 322 < 1;
#X obj 494 319 < 1;
#X obj 249 510 outlet;
#X obj 249 455 == 0;
#X text 319 484 0= choca;
#X text 321 504 1= no choca;
#X obj 71 62 t f f f f;
#X connect 0 0 47 0;
#X connect 1 0 19 0;
#X connect 2 0 30 0;
#X connect 4 0 8 0;
#X connect 5 0 4 0;
#X connect 6 0 9 0;
#X connect 7 0 44 0;
#X connect 8 0 40 0;
#X connect 9 0 39 0;
#X connect 10 0 6 0;
#X connect 11 0 31 0;
#X connect 12 0 14 0;
#X connect 13 0 12 0;
#X connect 14 0 41 0;
#X connect 15 0 32 0;
#X connect 16 0 18 0;
#X connect 17 0 16 0;
#X connect 18 0 42 0;
#X connect 19 0 10 0;
#X connect 20 0 28 1;
#X connect 21 0 28 0;
#X connect 22 0 26 1;
#X connect 23 0 26 0;
#X connect 24 0 27 1;
#X connect 25 0 27 0;
#X connect 26 0 20 0;
#X connect 27 0 21 0;
#X connect 28 0 7 0;
#X connect 29 0 2 0;
#X connect 30 0 5 0;
#X connect 31 0 13 0;
#X connect 32 0 17 0;
#X connect 35 0 11 0;
#X connect 38 0 15 0;
#X connect 39 0 25 0;
#X connect 40 0 24 0;
#X connect 41 0 23 0;
#X connect 42 0 22 0;
#X connect 44 0 43 0;
#X connect 47 0 1 0;
#X connect 47 1 29 0;
#X connect 47 2 35 0;
#X connect 47 3 38 0;
#X restore 102 94 pd verifica4puntos;
#X obj 151 291 * 1;
#X obj 102 291 * -1;
#X obj 199 294 * 570;
#X obj 261 293 * -570;
#X obj 102 319 outlet;
#X obj 151 319 outlet;
#X obj 199 319 outlet;
#X obj 261 319 outlet;
#X obj 102 34 t f f f f;
#X floatatom 55 12 5 0 0 0 - - -;
#X floatatom 199 267 5 0 0 0 - - -;
#X text 254 42 falta agregar esto!!;
#X obj 102 71 - 1;
#X obj 151 70 + 1;
#X obj 199 69 + 570;
#X obj 259 69 - 570;
#N canvas 548 55 679 545 verifica4puntos 0;
#X obj 71 28 inlet;
#X floatatom 71 162 5 0 0 0 - - -;
#X floatatom 188 165 5 0 0 0 - - -;
#X text 21 147 pixel nueva posicion;
#X obj 188 269 tabread laberinto;
#X floatatom 188 246 5 0 0 0 - - -;
#X obj 71 265 tabread laberinto;
#X floatatom 248 433 5 0 0 0 - - -;
#X floatatom 188 294 5 0 0 0 - - -;
#X floatatom 71 291 5 0 0 0 - - -;
#X floatatom 71 240 5 0 0 0 - - -;
#X floatatom 343 142 5 0 0 0 - - -;
#X obj 343 273 tabread laberinto;
#X floatatom 343 250 5 0 0 0 - - -;
#X floatatom 343 298 5 0 0 0 - - -;
#X floatatom 493 139 5 0 0 0 - - -;
#X obj 493 270 tabread laberinto;
#X floatatom 493 247 5 0 0 0 - - -;
#X floatatom 493 295 5 0 0 0 - - -;
#N canvas 295 166 260 392 cuadrante 0;
#X obj 31 23 inlet;
#X floatatom 31 53 5 0 0 0 - - -;
#X obj 31 78 t f f;
#X obj 31 233 +;
#X floatatom 31 259 5 0 0 0 - - -;
#X obj 31 289 outlet;
#X floatatom 31 183 5 0 0 0 - - -;
#X floatatom 84 173 5 0 0 0 - - -;
#X obj 84 199 * 19;
#X obj 31 112 % 570;
#X obj 31 140 div 30;
#X obj 84 142 div 17100;
#X text 104 156 19*30*30;
#X text 39 97 19*30;
#X text 28 156 columna;
#X text 88 213 linea (cada 19 columnas);
#X connect 0 0 1 0;
#X connect 1 0 2 0;
#X connect 2 0 9 0;
#X connect 2 1 11 0;
#X connect 3 0 4 0;
#X connect 4 0 5 0;
#X connect 6 0 3 0;
#X connect 7 0 8 0;
#X connect 8 0 3 1;
#X connect 9 0 10 0;
#X connect 10 0 6 0;
#X connect 11 0 7 0;
#X restore 71 212 pd cuadrante;
#X floatatom 343 391 5 0 0 0 - - -;
#X floatatom 173 391 5 0 0 0 - - -;
#X floatatom 494 344 5 0 0 0 - - -;
#X floatatom 343 345 5 0 0 0 - - -;
#X floatatom 188 343 5 0 0 0 - - -;
#X floatatom 71 343 5 0 0 0 - - -;
#X obj 343 369 ||;
#X obj 173 367 ||;
#X obj 248 407 ||;
#X obj 188 136 + 29;
#N canvas 295 166 260 392 cuadrante 0;
#X obj 31 23 inlet;
#X floatatom 31 53 5 0 0 0 - - -;
#X obj 31 78 t f f;
#X obj 31 233 +;
#X floatatom 31 259 5 0 0 0 - - -;
#X obj 31 289 outlet;
#X floatatom 31 183 5 0 0 0 - - -;
#X floatatom 84 173 5 0 0 0 - - -;
#X obj 84 199 * 19;
#X obj 31 112 % 570;
#X obj 31 140 div 30;
#X obj 84 142 div 17100;
#X text 104 156 19*30*30;
#X text 39 97 19*30;
#X text 28 156 columna;
#X text 88 213 linea (cada 19 columnas);
#X connect 0 0 1 0;
#X connect 1 0 2 0;
#X connect 2 0 9 0;
#X connect 2 1 11 0;
#X connect 3 0 4 0;
#X connect 4 0 5 0;
#X connect 6 0 3 0;
#X connect 7 0 8 0;
#X connect 8 0 3 1;
#X connect 9 0 10 0;
#X connect 10 0 6 0;
#X connect 11 0 7 0;
#X restore 188 209 pd cuadrante;
#N canvas 295 166 260 392 cuadrante 0;
#X obj 31 23 inlet;
#X floatatom 31 53 5 0 0 0 - - -;
#X obj 31 78 t f f;
#X obj 31 233 +;
#X floatatom 31 259 5 0 0 0 - - -;
#X obj 31 289 outlet;
#X floatatom 31 183 5 0 0 0 - - -;
#X floatatom 84 173 5 0 0 0 - - -;
#X obj 84 199 * 19;
#X obj 31 112 % 570;
#X obj 31 140 div 30;
#X obj 84 142 div 17100;
#X text 104 156 19*30*30;
#X text 39 97 19*30;
#X text 28 156 columna;
#X text 88 213 linea (cada 19 columnas);
#X connect 0 0 1 0;
#X connect 1 0 2 0;
#X connect 2 0 9 0;
#X connect 2 1 11 0;
#X connect 3 0 4 0;
#X connect 4 0 5 0;
#X connect 6 0 3 0;
#X connect 7 0 8 0;
#X connect 8 0 3 1;
#X connect 9 0 10 0;
#X connect 10 0 6 0;
#X connect 11 0 7 0;
#X restore 343 205 pd cuadrante;
#N canvas 295 166 260 392 cuadrante 0;
#X obj 31 23 inlet;
#X floatatom 31 53 5 0 0 0 - - -;
#X obj 31 78 t f f;
#X obj 31 233 +;
#X floatatom 31 259 5 0 0 0 - - -;
#X obj 31 289 outlet;
#X floatatom 31 183 5 0 0 0 - - -;
#X floatatom 84 173 5 0 0 0 - - -;
#X obj 84 199 * 19;
#X obj 31 112 % 570;
#X obj 31 140 div 30;
#X obj 84 142 div 17100;
#X text 104 156 19*30*30;
#X text 39 97 19*30;
#X text 28 156 columna;
#X text 88 213 linea (cada 19 columnas);
#X connect 0 0 1 0;
#X connect 1 0 2 0;
#X connect 2 0 9 0;
#X connect 2 1 11 0;
#X connect 3 0 4 0;
#X connect 4 0 5 0;
#X connect 6 0 3 0;
#X connect 7 0 8 0;
#X connect 8 0 3 1;
#X connect 9 0 10 0;
#X connect 10 0 6 0;
#X connect 11 0 7 0;
#X restore 493 199 pd cuadrante;
#X text 186 109 (tamano-1);
#X text 338 85 ((19*30*(30-1));
#X obj 343 113 + 16530;
#X text 478 87 (((19*30*(30-1))+29);
#X text 236 36 verifica 4 vertices \,;
#X obj 493 110 + 16559;
#X obj 71 315 < 1;
#X obj 188 318 < 1;
#X obj 343 322 < 1;
#X obj 494 319 < 1;
#X obj 249 510 outlet;
#X obj 249 455 == 0;
#X text 319 484 0= choca;
#X text 321 504 1= no choca;
#X obj 71 62 t f f f f;
#X connect 0 0 47 0;
#X connect 1 0 19 0;
#X connect 2 0 30 0;
#X connect 4 0 8 0;
#X connect 5 0 4 0;
#X connect 6 0 9 0;
#X connect 7 0 44 0;
#X connect 8 0 40 0;
#X connect 9 0 39 0;
#X connect 10 0 6 0;
#X connect 11 0 31 0;
#X connect 12 0 14 0;
#X connect 13 0 12 0;
#X connect 14 0 41 0;
#X connect 15 0 32 0;
#X connect 16 0 18 0;
#X connect 17 0 16 0;
#X connect 18 0 42 0;
#X connect 19 0 10 0;
#X connect 20 0 28 1;
#X connect 21 0 28 0;
#X connect 22 0 26 1;
#X connect 23 0 26 0;
#X connect 24 0 27 1;
#X connect 25 0 27 0;
#X connect 26 0 20 0;
#X connect 27 0 21 0;
#X connect 28 0 7 0;
#X connect 29 0 2 0;
#X connect 30 0 5 0;
#X connect 31 0 13 0;
#X connect 32 0 17 0;
#X connect 35 0 11 0;
#X connect 38 0 15 0;
#X connect 39 0 25 0;
#X connect 40 0 24 0;
#X connect 41 0 23 0;
#X connect 42 0 22 0;
#X connect 44 0 43 0;
#X connect 47 0 1 0;
#X connect 47 1 29 0;
#X connect 47 2 35 0;
#X connect 47 3 38 0;
#X restore 150 123 pd verifica4puntos;
#N canvas 548 55 679 545 verifica4puntos 0;
#X obj 71 28 inlet;
#X floatatom 71 162 5 0 0 0 - - -;
#X floatatom 188 165 5 0 0 0 - - -;
#X text 21 147 pixel nueva posicion;
#X obj 188 269 tabread laberinto;
#X floatatom 188 246 5 0 0 0 - - -;
#X obj 71 265 tabread laberinto;
#X floatatom 248 433 5 0 0 0 - - -;
#X floatatom 188 294 5 0 0 0 - - -;
#X floatatom 71 291 5 0 0 0 - - -;
#X floatatom 71 240 5 0 0 0 - - -;
#X floatatom 343 142 5 0 0 0 - - -;
#X obj 343 273 tabread laberinto;
#X floatatom 343 250 5 0 0 0 - - -;
#X floatatom 343 298 5 0 0 0 - - -;
#X floatatom 493 139 5 0 0 0 - - -;
#X obj 493 270 tabread laberinto;
#X floatatom 493 247 5 0 0 0 - - -;
#X floatatom 493 295 5 0 0 0 - - -;
#N canvas 295 166 260 392 cuadrante 0;
#X obj 31 23 inlet;
#X floatatom 31 53 5 0 0 0 - - -;
#X obj 31 78 t f f;
#X obj 31 233 +;
#X floatatom 31 259 5 0 0 0 - - -;
#X obj 31 289 outlet;
#X floatatom 31 183 5 0 0 0 - - -;
#X floatatom 84 173 5 0 0 0 - - -;
#X obj 84 199 * 19;
#X obj 31 112 % 570;
#X obj 31 140 div 30;
#X obj 84 142 div 17100;
#X text 104 156 19*30*30;
#X text 39 97 19*30;
#X text 28 156 columna;
#X text 88 213 linea (cada 19 columnas);
#X connect 0 0 1 0;
#X connect 1 0 2 0;
#X connect 2 0 9 0;
#X connect 2 1 11 0;
#X connect 3 0 4 0;
#X connect 4 0 5 0;
#X connect 6 0 3 0;
#X connect 7 0 8 0;
#X connect 8 0 3 1;
#X connect 9 0 10 0;
#X connect 10 0 6 0;
#X connect 11 0 7 0;
#X restore 71 212 pd cuadrante;
#X floatatom 343 391 5 0 0 0 - - -;
#X floatatom 173 391 5 0 0 0 - - -;
#X floatatom 494 344 5 0 0 0 - - -;
#X floatatom 343 345 5 0 0 0 - - -;
#X floatatom 188 343 5 0 0 0 - - -;
#X floatatom 71 343 5 0 0 0 - - -;
#X obj 343 369 ||;
#X obj 173 367 ||;
#X obj 248 407 ||;
#X obj 188 136 + 29;
#N canvas 295 166 260 392 cuadrante 0;
#X obj 31 23 inlet;
#X floatatom 31 53 5 0 0 0 - - -;
#X obj 31 78 t f f;
#X obj 31 233 +;
#X floatatom 31 259 5 0 0 0 - - -;
#X obj 31 289 outlet;
#X floatatom 31 183 5 0 0 0 - - -;
#X floatatom 84 173 5 0 0 0 - - -;
#X obj 84 199 * 19;
#X obj 31 112 % 570;
#X obj 31 140 div 30;
#X obj 84 142 div 17100;
#X text 104 156 19*30*30;
#X text 39 97 19*30;
#X text 28 156 columna;
#X text 88 213 linea (cada 19 columnas);
#X connect 0 0 1 0;
#X connect 1 0 2 0;
#X connect 2 0 9 0;
#X connect 2 1 11 0;
#X connect 3 0 4 0;
#X connect 4 0 5 0;
#X connect 6 0 3 0;
#X connect 7 0 8 0;
#X connect 8 0 3 1;
#X connect 9 0 10 0;
#X connect 10 0 6 0;
#X connect 11 0 7 0;
#X restore 188 209 pd cuadrante;
#N canvas 295 166 260 392 cuadrante 0;
#X obj 31 23 inlet;
#X floatatom 31 53 5 0 0 0 - - -;
#X obj 31 78 t f f;
#X obj 31 233 +;
#X floatatom 31 259 5 0 0 0 - - -;
#X obj 31 289 outlet;
#X floatatom 31 183 5 0 0 0 - - -;
#X floatatom 84 173 5 0 0 0 - - -;
#X obj 84 199 * 19;
#X obj 31 112 % 570;
#X obj 31 140 div 30;
#X obj 84 142 div 17100;
#X text 104 156 19*30*30;
#X text 39 97 19*30;
#X text 28 156 columna;
#X text 88 213 linea (cada 19 columnas);
#X connect 0 0 1 0;
#X connect 1 0 2 0;
#X connect 2 0 9 0;
#X connect 2 1 11 0;
#X connect 3 0 4 0;
#X connect 4 0 5 0;
#X connect 6 0 3 0;
#X connect 7 0 8 0;
#X connect 8 0 3 1;
#X connect 9 0 10 0;
#X connect 10 0 6 0;
#X connect 11 0 7 0;
#X restore 343 205 pd cuadrante;
#N canvas 295 166 260 392 cuadrante 0;
#X obj 31 23 inlet;
#X floatatom 31 53 5 0 0 0 - - -;
#X obj 31 78 t f f;
#X obj 31 233 +;
#X floatatom 31 259 5 0 0 0 - - -;
#X obj 31 289 outlet;
#X floatatom 31 183 5 0 0 0 - - -;
#X floatatom 84 173 5 0 0 0 - - -;
#X obj 84 199 * 19;
#X obj 31 112 % 570;
#X obj 31 140 div 30;
#X obj 84 142 div 17100;
#X text 104 156 19*30*30;
#X text 39 97 19*30;
#X text 28 156 columna;
#X text 88 213 linea (cada 19 columnas);
#X connect 0 0 1 0;
#X connect 1 0 2 0;
#X connect 2 0 9 0;
#X connect 2 1 11 0;
#X connect 3 0 4 0;
#X connect 4 0 5 0;
#X connect 6 0 3 0;
#X connect 7 0 8 0;
#X connect 8 0 3 1;
#X connect 9 0 10 0;
#X connect 10 0 6 0;
#X connect 11 0 7 0;
#X restore 493 199 pd cuadrante;
#X text 186 109 (tamano-1);
#X text 338 85 ((19*30*(30-1));
#X obj 343 113 + 16530;
#X text 478 87 (((19*30*(30-1))+29);
#X text 236 36 verifica 4 vertices \,;
#X obj 493 110 + 16559;
#X obj 71 315 < 1;
#X obj 188 318 < 1;
#X obj 343 322 < 1;
#X obj 494 319 < 1;
#X obj 249 510 outlet;
#X obj 249 455 == 0;
#X text 319 484 0= choca;
#X text 321 504 1= no choca;
#X obj 71 62 t f f f f;
#X connect 0 0 47 0;
#X connect 1 0 19 0;
#X connect 2 0 30 0;
#X connect 4 0 8 0;
#X connect 5 0 4 0;
#X connect 6 0 9 0;
#X connect 7 0 44 0;
#X connect 8 0 40 0;
#X connect 9 0 39 0;
#X connect 10 0 6 0;
#X connect 11 0 31 0;
#X connect 12 0 14 0;
#X connect 13 0 12 0;
#X connect 14 0 41 0;
#X connect 15 0 32 0;
#X connect 16 0 18 0;
#X connect 17 0 16 0;
#X connect 18 0 42 0;
#X connect 19 0 10 0;
#X connect 20 0 28 1;
#X connect 21 0 28 0;
#X connect 22 0 26 1;
#X connect 23 0 26 0;
#X connect 24 0 27 1;
#X connect 25 0 27 0;
#X connect 26 0 20 0;
#X connect 27 0 21 0;
#X connect 28 0 7 0;
#X connect 29 0 2 0;
#X connect 30 0 5 0;
#X connect 31 0 13 0;
#X connect 32 0 17 0;
#X connect 35 0 11 0;
#X connect 38 0 15 0;
#X connect 39 0 25 0;
#X connect 40 0 24 0;
#X connect 41 0 23 0;
#X connect 42 0 22 0;
#X connect 44 0 43 0;
#X connect 47 0 1 0;
#X connect 47 1 29 0;
#X connect 47 2 35 0;
#X connect 47 3 38 0;
#X restore 199 149 pd verifica4puntos;
#N canvas 548 55 679 545 verifica4puntos 0;
#X obj 71 28 inlet;
#X floatatom 71 162 5 0 0 0 - - -;
#X floatatom 188 165 5 0 0 0 - - -;
#X text 21 147 pixel nueva posicion;
#X obj 188 269 tabread laberinto;
#X floatatom 188 246 5 0 0 0 - - -;
#X obj 71 265 tabread laberinto;
#X floatatom 248 433 5 0 0 0 - - -;
#X floatatom 188 294 5 0 0 0 - - -;
#X floatatom 71 291 5 0 0 0 - - -;
#X floatatom 71 240 5 0 0 0 - - -;
#X floatatom 343 142 5 0 0 0 - - -;
#X obj 343 273 tabread laberinto;
#X floatatom 343 250 5 0 0 0 - - -;
#X floatatom 343 298 5 0 0 0 - - -;
#X floatatom 493 139 5 0 0 0 - - -;
#X obj 493 270 tabread laberinto;
#X floatatom 493 247 5 0 0 0 - - -;
#X floatatom 493 295 5 0 0 0 - - -;
#N canvas 295 166 260 392 cuadrante 0;
#X obj 31 23 inlet;
#X floatatom 31 53 5 0 0 0 - - -;
#X obj 31 78 t f f;
#X obj 31 233 +;
#X floatatom 31 259 5 0 0 0 - - -;
#X obj 31 289 outlet;
#X floatatom 31 183 5 0 0 0 - - -;
#X floatatom 84 173 5 0 0 0 - - -;
#X obj 84 199 * 19;
#X obj 31 112 % 570;
#X obj 31 140 div 30;
#X obj 84 142 div 17100;
#X text 104 156 19*30*30;
#X text 39 97 19*30;
#X text 28 156 columna;
#X text 88 213 linea (cada 19 columnas);
#X connect 0 0 1 0;
#X connect 1 0 2 0;
#X connect 2 0 9 0;
#X connect 2 1 11 0;
#X connect 3 0 4 0;
#X connect 4 0 5 0;
#X connect 6 0 3 0;
#X connect 7 0 8 0;
#X connect 8 0 3 1;
#X connect 9 0 10 0;
#X connect 10 0 6 0;
#X connect 11 0 7 0;
#X restore 71 212 pd cuadrante;
#X floatatom 343 391 5 0 0 0 - - -;
#X floatatom 173 391 5 0 0 0 - - -;
#X floatatom 494 344 5 0 0 0 - - -;
#X floatatom 343 345 5 0 0 0 - - -;
#X floatatom 188 343 5 0 0 0 - - -;
#X floatatom 71 343 5 0 0 0 - - -;
#X obj 343 369 ||;
#X obj 173 367 ||;
#X obj 248 407 ||;
#X obj 188 136 + 29;
#N canvas 295 166 260 392 cuadrante 0;
#X obj 31 23 inlet;
#X floatatom 31 53 5 0 0 0 - - -;
#X obj 31 78 t f f;
#X obj 31 233 +;
#X floatatom 31 259 5 0 0 0 - - -;
#X obj 31 289 outlet;
#X floatatom 31 183 5 0 0 0 - - -;
#X floatatom 84 173 5 0 0 0 - - -;
#X obj 84 199 * 19;
#X obj 31 112 % 570;
#X obj 31 140 div 30;
#X obj 84 142 div 17100;
#X text 104 156 19*30*30;
#X text 39 97 19*30;
#X text 28 156 columna;
#X text 88 213 linea (cada 19 columnas);
#X connect 0 0 1 0;
#X connect 1 0 2 0;
#X connect 2 0 9 0;
#X connect 2 1 11 0;
#X connect 3 0 4 0;
#X connect 4 0 5 0;
#X connect 6 0 3 0;
#X connect 7 0 8 0;
#X connect 8 0 3 1;
#X connect 9 0 10 0;
#X connect 10 0 6 0;
#X connect 11 0 7 0;
#X restore 188 209 pd cuadrante;
#N canvas 295 166 260 392 cuadrante 0;
#X obj 31 23 inlet;
#X floatatom 31 53 5 0 0 0 - - -;
#X obj 31 78 t f f;
#X obj 31 233 +;
#X floatatom 31 259 5 0 0 0 - - -;
#X obj 31 289 outlet;
#X floatatom 31 183 5 0 0 0 - - -;
#X floatatom 84 173 5 0 0 0 - - -;
#X obj 84 199 * 19;
#X obj 31 112 % 570;
#X obj 31 140 div 30;
#X obj 84 142 div 17100;
#X text 104 156 19*30*30;
#X text 39 97 19*30;
#X text 28 156 columna;
#X text 88 213 linea (cada 19 columnas);
#X connect 0 0 1 0;
#X connect 1 0 2 0;
#X connect 2 0 9 0;
#X connect 2 1 11 0;
#X connect 3 0 4 0;
#X connect 4 0 5 0;
#X connect 6 0 3 0;
#X connect 7 0 8 0;
#X connect 8 0 3 1;
#X connect 9 0 10 0;
#X connect 10 0 6 0;
#X connect 11 0 7 0;
#X restore 343 205 pd cuadrante;
#N canvas 295 166 260 392 cuadrante 0;
#X obj 31 23 inlet;
#X floatatom 31 53 5 0 0 0 - - -;
#X obj 31 78 t f f;
#X obj 31 233 +;
#X floatatom 31 259 5 0 0 0 - - -;
#X obj 31 289 outlet;
#X floatatom 31 183 5 0 0 0 - - -;
#X floatatom 84 173 5 0 0 0 - - -;
#X obj 84 199 * 19;
#X obj 31 112 % 570;
#X obj 31 140 div 30;
#X obj 84 142 div 17100;
#X text 104 156 19*30*30;
#X text 39 97 19*30;
#X text 28 156 columna;
#X text 88 213 linea (cada 19 columnas);
#X connect 0 0 1 0;
#X connect 1 0 2 0;
#X connect 2 0 9 0;
#X connect 2 1 11 0;
#X connect 3 0 4 0;
#X connect 4 0 5 0;
#X connect 6 0 3 0;
#X connect 7 0 8 0;
#X connect 8 0 3 1;
#X connect 9 0 10 0;
#X connect 10 0 6 0;
#X connect 11 0 7 0;
#X restore 493 199 pd cuadrante;
#X text 186 109 (tamano-1);
#X text 338 85 ((19*30*(30-1));
#X obj 343 113 + 16530;
#X text 478 87 (((19*30*(30-1))+29);
#X text 236 36 verifica 4 vertices \,;
#X obj 493 110 + 16559;
#X obj 71 315 < 1;
#X obj 188 318 < 1;
#X obj 343 322 < 1;
#X obj 494 319 < 1;
#X obj 249 510 outlet;
#X obj 249 455 == 0;
#X text 319 484 0= choca;
#X text 321 504 1= no choca;
#X obj 71 62 t f f f f;
#X connect 0 0 47 0;
#X connect 1 0 19 0;
#X connect 2 0 30 0;
#X connect 4 0 8 0;
#X connect 5 0 4 0;
#X connect 6 0 9 0;
#X connect 7 0 44 0;
#X connect 8 0 40 0;
#X connect 9 0 39 0;
#X connect 10 0 6 0;
#X connect 11 0 31 0;
#X connect 12 0 14 0;
#X connect 13 0 12 0;
#X connect 14 0 41 0;
#X connect 15 0 32 0;
#X connect 16 0 18 0;
#X connect 17 0 16 0;
#X connect 18 0 42 0;
#X connect 19 0 10 0;
#X connect 20 0 28 1;
#X connect 21 0 28 0;
#X connect 22 0 26 1;
#X connect 23 0 26 0;
#X connect 24 0 27 1;
#X connect 25 0 27 0;
#X connect 26 0 20 0;
#X connect 27 0 21 0;
#X connect 28 0 7 0;
#X connect 29 0 2 0;
#X connect 30 0 5 0;
#X connect 31 0 13 0;
#X connect 32 0 17 0;
#X connect 35 0 11 0;
#X connect 38 0 15 0;
#X connect 39 0 25 0;
#X connect 40 0 24 0;
#X connect 41 0 23 0;
#X connect 42 0 22 0;
#X connect 44 0 43 0;
#X connect 47 0 1 0;
#X connect 47 1 29 0;
#X connect 47 2 35 0;
#X connect 47 3 38 0;
#X restore 261 176 pd verifica4puntos;
#X connect 0 0 13 0;
#X connect 1 0 8 0;
#X connect 2 0 6 0;
#X connect 3 0 5 0;
#X connect 4 0 2 0;
#X connect 5 0 10 0;
#X connect 6 0 9 0;
#X connect 7 0 11 0;
#X connect 8 0 12 0;
#X connect 13 0 17 0;
#X connect 13 1 18 0;
#X connect 13 2 19 0;
#X connect 13 3 20 0;
#X connect 14 0 13 0;
#X connect 15 0 7 0;
#X connect 17 0 4 0;
#X connect 18 0 21 0;
#X connect 19 0 22 0;
#X connect 20 0 23 0;
#X connect 21 0 3 0;
#X connect 22 0 15 0;
#X connect 23 0 1 0;
#X restore 142 80 pd verifica4cuadrantesAlrededor;
#X obj 271 253 t b b;
#X obj 114 321 spigot 1;
#X obj 75 258 t f b f;
#X obj 158 105 r \$0-noRet;
#N canvas 0 22 450 300 evitaRetorno 0;
#X obj 51 35 inlet;
#X obj 246 36 inlet;
#X text 129 94 evita que se devuelva;
#X obj 51 75 sel -1 1 570 -570;
#X msg 51 104 1 0 1 1;
#X msg 75 141 0 1 1 1;
#X msg 100 180 1 1 1 0;
#X msg 125 216 1 1 0 1;
#X obj 41 209 s \$0-noRet;
#X msg 246 165 1 1 1 1;
#X obj 278 132 r reset;
#X text 249 189 permite todo movimiento;
#X connect 0 0 3 0;
#X connect 1 0 9 0;
#X connect 3 0 4 0;
#X connect 3 1 5 0;
#X connect 3 2 6 0;
#X connect 3 3 7 0;
#X connect 4 0 8 0;
#X connect 5 0 8 0;
#X connect 6 0 8 0;
#X connect 7 0 8 0;
#X connect 9 0 8 0;
#X connect 10 0 9 0;
#X restore 114 349 pd evitaRetorno;
#X text 224 104 desde evitaretorno;
#X obj 129 285 n_unocero;
#X connect 0 0 5 0;
#X connect 2 0 1 0;
#X connect 3 0 2 0;
#X connect 3 1 16 0;
#X connect 4 0 2 1;
#X connect 5 0 3 0;
#X connect 6 0 11 0;
#X connect 7 0 11 1;
#X connect 8 0 11 2;
#X connect 9 0 11 3;
#X connect 10 0 12 0;
#X connect 10 1 13 0;
#X connect 10 2 14 0;
#X connect 10 3 15 0;
#X connect 11 0 19 0;
#X connect 11 1 17 0;
#X connect 12 0 6 1;
#X connect 13 0 7 1;
#X connect 14 0 8 1;
#X connect 15 0 9 1;
#X connect 16 0 6 0;
#X connect 16 1 7 0;
#X connect 16 2 8 0;
#X connect 16 3 9 0;
#X connect 17 0 23 1;
#X connect 17 1 21 1;
#X connect 18 0 21 0;
#X connect 19 0 4 0;
#X connect 19 1 23 0;
#X connect 19 2 18 0;
#X connect 20 0 10 0;
#X connect 23 0 18 1;
